<svg width="550" height="550" version="1.1" xmlns="http://www.w3.org/2000/svg">
 <path d="m97 0c-12 0-22 9.7-22 22v508c0 12 9.7 22 22 22h356c12 0 22-9.7 22-22v-396l-0.1-1.2c0-2.5-0.8-5-2.6-7l-106-121c-0.7-0.8-1.4-1.4-2.2-1.9-0.87-0.56-1.8-1-2.8-1.3l-0.6-0.2c-0.82-0.2-1.7-0.3-2.5-0.3zm0 22h250v111c0 6 4.8 11 11 11h95v224h-356v-0.2zm243 372h101v25h-76l-8.6e-4 81h52v-33h-26v-23h50v81l-101-1e-5 -1e-3 -58zm-34 92v-92c7.9 0.16 25 0.13 25 0.13-0.022 8.6-0.022 106-0.01 131-4.7 0.36-25-0.08-25-0.08s-53-82-60-94c0.23 14 0 75 0 95h-25c0-25 0-116 0.25-131 0 0 20-0.13 25-0.13 14 21 47 73 60 92zm-196-92h101l0.12 73h-51v-23h25v-25h-49v25h25v23h-25v58l-26 7.9e-4c-2e-3 -45-0.022-85-0.025-131z"/>
 <g>
  <ellipse cx="228" cy="241" rx="102" ry="106"/>
  <ellipse cx="239" cy="91" rx="36" ry="37"/>
  <ellipse cx="403" cy="231" rx="38" ry="36"/>
  <ellipse cx="404" cy="230" rx="13" ry="2.9"/>
 </g>
</svg>
