<svg width="550" height="550" version="1.1" xmlns="http://www.w3.org/2000/svg">
 <path d="m97 0c-12 0-22 9.7-22 22v508c0 12 9.7 22 22 22h356c12 0 22-9.7 22-22v-396l-0.1-1.2c0-2.5-0.8-5-2.6-7l-106-121c-0.7-0.8-1.4-1.4-2.2-1.9-0.87-0.56-1.8-1-2.8-1.3l-0.6-0.2c-0.82-0.2-1.7-0.3-2.5-0.3zm0 22h250v111c0 6 4.8 11 11 11h95v224h-356v-0.2zm243 372h101v25h-76l-8.6e-4 81h52v-33h-26v-23h50v81l-101-1e-5 -1e-3 -58zm-65 106c8.9-30 24-81 31-106 7.9 0.16 25 0.13 25 0.13-6.7 21-34 108-41 131-6.4 0-25 1e-5 -29 1e-5 -8.4-25-30-97-39-131 0 0 20-0.13 25-0.13 6.4 25 21 77 29 106zm-165-106h101v25l-75 0.018v25h75v81l-101 8.5e-4s-0.046-18 0-25l75 6.2e-4c0-17 0.03-22 0-33-9.6-6.7e-4 -65 0-75 0-0.016-6.9-0.024-65-0.024-73z"/>
 <path d="m236 110c-18-13-42-7.3-61-1.4-31 9.5-41 45-40 76 3.1 66 63 130 129 123 20-2 32-23 31-43-0.88-16 15-35 32-28 22 8 27 33 40 50 9.3 12 28 18 42 7.5 27-21 24-65 2.4-89-15-16-39-21-61-18-34 5.9-66 27-101 23-18 3.5-32-13-33-31-1.4-24 15-43 22-65 0.62-1.8 0.33-4.9-2.1-5.1z" fill="none" stroke="#000" stroke-width="8"/>
</svg>
