<svg width="550" height="550" version="1.1" xmlns="http://www.w3.org/2000/svg">
 <path d="m97 0c-12 0-22 9.7-22 22v508c0 12 9.7 22 22 22h356c12 0 22-9.7 22-22v-396l-0.1-1.2c0-2.5-0.8-5-2.6-7l-106-121c-0.7-0.8-1.4-1.4-2.2-1.9-0.87-0.56-1.8-1-2.8-1.3l-0.6-0.2c-0.82-0.2-1.7-0.3-2.5-0.3zm0 22h250v111c0 6 4.8 11 11 11h95v224h-356v-0.2zm243 372h101l-8.6e-4 73 2e-3 33h-24v-81h-52v81h52 24v25l-76-1e-5c-8.4 1e-5 -18 0-25 0l-1e-3 -58zm-130-0.021v25h-38l-0.58 81h39v25l-101 3e-5v-25h39v-81l-39 2e-5 0.25-25zm120-2e-5v25h-85v81h85v25h-110c0.054-13-0.018-122 0-131 37 0.3 73 0.046 110 0z"/>
 <g>
  <path d="m139 71h72v72h-72z"/>
  <path d="m169 100h121v121h-121z" stroke="#fff" stroke-linejoin="bevel" stroke-width="8"/>
  <path d="m230 153h170v170h-170z" stroke="#fff" stroke-linejoin="bevel" stroke-width="8"/>
 </g>
</svg>
