<?xml version="1.0" encoding="UTF-8" standalone="no"?>
<!-- Created with Inkscape (http://www.inkscape.org/) -->

<svg
   xmlns:dc="http://purl.org/dc/elements/1.1/"
   xmlns:cc="http://creativecommons.org/ns#"
   xmlns:rdf="http://www.w3.org/1999/02/22-rdf-syntax-ns#"
   xmlns:svg="http://www.w3.org/2000/svg"
   xmlns="http://www.w3.org/2000/svg"
   xmlns:sodipodi="http://sodipodi.sourceforge.net/DTD/sodipodi-0.dtd"
   xmlns:inkscape="http://www.inkscape.org/namespaces/inkscape"
   id="svg5269"
   version="1.1"
   inkscape:version="0.91 r13725"
   width="250mm"
   height="250mm"
   viewBox="0 0 885.82679 885.82679"
   sodipodi:docname="github_logo_square.svg">
  <metadata
     id="metadata5275">
    <rdf:RDF>
      <cc:Work
         rdf:about="">
        <dc:format>image/svg+xml</dc:format>
        <dc:type
           rdf:resource="http://purl.org/dc/dcmitype/StillImage" />
        <dc:title></dc:title>
      </cc:Work>
    </rdf:RDF>
  </metadata>
  <defs
     id="defs5273" />
  <sodipodi:namedview
     pagecolor="#ffffff"
     bordercolor="#666666"
     borderopacity="1"
     objecttolerance="10"
     gridtolerance="10"
     guidetolerance="10"
     inkscape:pageopacity="0"
     inkscape:pageshadow="2"
     inkscape:window-width="1366"
     inkscape:window-height="705"
     id="namedview5271"
     showgrid="false"
     units="mm"
     inkscape:snap-object-midpoints="true"
     inkscape:zoom="0.53827258"
     inkscape:cx="14.698077"
     inkscape:cy="426.67466"
     inkscape:window-x="1352"
     inkscape:window-y="308"
     inkscape:window-maximized="1"
     inkscape:current-layer="svg5269" />
  <path
     d="m 0,885.82677 885.82677,0 0,-885.8267715157444 -885.82677,0 L 0,885.82677 Z"
     style="fill:#231f20;fill-opacity:1;fill-rule:nonzero;stroke:none"
     id="path12"
     inkscape:connector-curvature="0" />
  <path
     d="m 442.91347,219.21978 c -123.52642,0 -223.69368,102.6804 -223.69368,229.3569 0,101.33209 64.09505,187.30484 152.97539,217.6323 11.17954,2.12312 15.28382,-4.97544 15.28382,-11.03334 0,-5.46541 -0.20744,-23.53655 -0.30378,-42.70153 -62.23176,13.8743 -75.36342,-27.06112 -75.36342,-27.06112 -10.17562,-26.50664 -24.83714,-33.55962 -24.83714,-33.55962 -20.29572,-14.2351 1.52986,-13.94265 1.52986,-13.94265 22.46271,1.61796 34.29046,23.63908 34.29046,23.63908 19.95123,35.05983 52.33024,24.92283 65.09526,19.06244 2.01136,-14.82001 7.8048,-24.94183 14.20215,-30.6693 -49.68545,-5.79583 -101.9157,-25.46595 -101.9157,-113.34913 0,-25.03676 8.73837,-45.49689 23.04798,-61.55885 -2.32257,-5.78064 -9.97931,-29.10829 2.17071,-60.70051 0,0 18.78437,-6.16044 61.52795,23.51376 17.84355,-5.0818 36.97979,-7.63029 55.99014,-7.72146 19.01035,0.0912 38.16148,2.63966 56.03824,7.72146 42.69545,-29.6742 61.4539,-23.51376 61.4539,-23.51376 12.17601,31.59222 4.5192,54.91987 2.1966,60.70051 14.34305,16.06196 23.01843,36.52209 23.01843,61.55885 0,88.09588 -52.3303,107.48873 -102.14165,113.16683 8.02348,7.11756 15.17272,21.0754 15.17272,42.47364 0,30.68828 -0.25581,55.38702 -0.25581,62.94136 0,6.10727 4.02286,13.25901 15.36162,11.00676 88.83596,-30.36164 152.84946,-116.30403 152.84946,-217.60572 0,-126.6765 -100.15237,-229.3569 -223.69364,-229.3569"
     style="fill:#ffffff;fill-opacity:1;fill-rule:evenodd;stroke:none"
     id="path202"
     inkscape:connector-curvature="0" />
  <path
     d="m 303.94524,548.52338 c -0.49274,1.14301 -2.24098,1.48475 -3.83384,0.6984 -1.62617,-0.74765 -2.53366,-2.30113 -2.0077,-3.44464 0.48151,-1.16956 2.22979,-1.49619 3.85239,-0.71408 1.62233,0.74818 2.5486,2.31673 1.98915,3.46032"
     style="fill:#ffffff;fill-opacity:1;fill-rule:nonzero;stroke:none"
     id="path206"
     inkscape:connector-curvature="0" />
  <path
     d="m 313.00709,558.88634 c -1.06698,1.01414 -3.15605,0.54318 -4.56755,-1.05971 -1.4668,-1.59876 -1.73714,-3.74125 -0.65555,-4.76725 1.10007,-1.01325 3.12275,-0.53897 4.58579,1.05997 1.46707,1.61808 1.7522,3.7413 0.63731,4.76699"
     style="fill:#ffffff;fill-opacity:1;fill-rule:nonzero;stroke:none"
     id="path210"
     inkscape:connector-curvature="0" />
  <path
     d="m 321.82647,572.09402 c -1.37046,0.97954 -3.61543,0.0654 -5.00081,-1.97526 -1.37037,-2.04323 -1.37037,-4.48908 0.0325,-5.46911 1.38546,-0.98009 3.59693,-0.0967 5.0008,1.92521 1.36687,2.0741 1.36687,4.52005 -0.0327,5.51916"
     style="fill:#ffffff;fill-opacity:1;fill-rule:nonzero;stroke:none"
     id="path214"
     inkscape:connector-curvature="0" />
  <path
     d="m 333.90864,584.85668 c -1.22605,1.38639 -3.83763,1.01443 -5.74898,-0.87629 -1.9559,-1.85074 -2.50043,-4.47473 -1.2743,-5.86099 1.24472,-1.3905 3.87104,-0.99911 5.79723,0.87713 1.94116,1.84568 2.5301,4.48938 1.22605,5.86015"
     style="fill:#ffffff;fill-opacity:1;fill-rule:nonzero;stroke:none"
     id="path218"
     inkscape:connector-curvature="0" />
  <path
     d="m 350.57798,592.26727 c -0.5447,1.79668 -3.05603,2.60967 -5.58973,1.84551 -2.53013,-0.78607 -4.18599,-2.88581 -3.67468,-4.70198 0.5259,-1.81123 3.05236,-2.65803 5.60458,-1.84194 2.52631,0.78232 4.18568,2.87162 3.65983,4.69841"
     style="fill:#ffffff;fill-opacity:1;fill-rule:nonzero;stroke:none"
     id="path222"
     inkscape:connector-curvature="0" />
  <path
     d="m 368.88594,593.63964 c 0.0641,1.89176 -2.08556,3.45966 -4.74516,3.4947 -2.67435,0.065 -4.84161,-1.47034 -4.87109,-3.33065 0,-1.91066 2.10404,-3.45965 4.77471,-3.51003 2.65975,-0.0521 4.84154,1.46981 4.84154,3.34598"
     style="fill:#ffffff;fill-opacity:1;fill-rule:nonzero;stroke:none"
     id="path226"
     inkscape:connector-curvature="0" />
  <path
     d="m 385.92039,590.66863 c 0.31855,1.84229 -1.52986,3.73722 -4.17119,4.24244 -2.5965,0.4896 -5.00067,-0.65282 -5.33045,-2.48016 -0.3221,-1.89151 1.55588,-3.78675 4.15261,-4.27631 2.64492,-0.47118 5.012,0.63727 5.34903,2.51403"
     style="fill:#ffffff;fill-opacity:1;fill-rule:nonzero;stroke:none"
     id="path230"
     inkscape:connector-curvature="0" />
</svg>
