<svg xmlns:rdf="http://www.w3.org/1999/02/22-rdf-syntax-ns#" xmlns="http://www.w3.org/2000/svg" height="2e2mm" width="2e2mm" version="1.1" xmlns:cc="http://creativecommons.org/ns#" xmlns:dc="http://purl.org/dc/elements/1.1/" viewBox="0 0 885.8268 885.8268">
<rect height="9e2" width="9e2" y=".0008" x="0" fill="#0077b5"/>
<g fill="#fff">
<ellipse cy="3e2" cx="3e2" rx="6e1" ry="6e1"/>
<rect y="4e2" width="1e2" x="2e2" height="3e2"/>
<path d="m5e2 4e2c0.3 1e1 1e1 -5e1 1e2 -5e1 9e1 0.05 1e2 8e1 1e2 1e2 0.3 6e1 0.2 2e2 0.2 2e2h-1e2s-0.2-8e1 0-2e2c0.2-9e1 -1e2 -8e1 -1e2 -2-0.7 8e1 -2 2e2 -2 2e2l-1e2 0.08 0.02-3e2 9e1 -0.2z" fill-rule="evenodd"/>
</g>
</svg>
