<?xml version="1.0" encoding="UTF-8" standalone="no"?>
<svg
   xmlns:dc="http://purl.org/dc/elements/1.1/"
   xmlns:cc="http://creativecommons.org/ns#"
   xmlns:rdf="http://www.w3.org/1999/02/22-rdf-syntax-ns#"
   xmlns:svg="http://www.w3.org/2000/svg"
   xmlns="http://www.w3.org/2000/svg"
   viewBox="0 0 1000 1000"
   height="1000"
   width="1000"
   version="1.1"
   id="svg2">
  <title
     id="title4182">ludumdare</title>
  <metadata
     id="metadata8">
    <rdf:RDF>
      <cc:Work
         rdf:about="">
        <dc:format>image/svg+xml</dc:format>
        <dc:type
           rdf:resource="http://purl.org/dc/dcmitype/StillImage" />
        <dc:title>ludumdare</dc:title>
      </cc:Work>
    </rdf:RDF>
  </metadata>
  <defs
     id="defs6" />
  <g
     transform="scale(0.8,0.8)"
     id="ldlogo">
    <rect
       style="opacity:1;fill:#000000;fill-opacity:1"
       id="bg"
       width="1250"
       height="1250"
       x="0"
       y="0" />
    <path
       style="fill:#e05030;fill-opacity:1;fill-rule:evenodd"
       d="m 321.41084,528.42792 c -4.94018,0 -9.88037,-3.97654 -9.88037,-11.92556 l 0,-85.762 -59.27001,0.26835 0,92.96492 c 0,43.95341 33.10533,66.03583 66.2127,66.03583 l 50.99368,0 0,-61.58154 z m 130.73394,-2.92548 c 0,15.89804 -19.76073,15.89804 -19.76073,0 l 0,-62.92127 -56.3303,0 0,65.1901 c 0,87.90478 132.42337,87.90478 132.42337,0 l 0,-65.18807 -56.3303,0 0,62.91924 z m 141.1307,-94.49373 0,27.56745 -12.19799,0.38627 c -36.96396,0.33138 -66.6193,30.40145 -66.6193,67.44673 0,37.25265 29.98062,67.46299 67.23123,67.46299 37.25265,0 67.463,-30.21034 67.463,-67.46299 l 0,-95.39841 -55.87491,0 z m -12.19799,83.85099 12.19799,0 0,11.54946 c 0,6.36125 -4.99711,11.58808 -11.58402,11.58808 -6.36125,0 -11.35633,-5.22683 -11.35633,-11.58808 0,-6.15185 4.67996,-11.22621 10.7444,-11.54946 z m 150.55974,10.64274 c 0,15.89804 -19.76074,15.89804 -19.76074,0 l 0,-62.92127 -56.33233,0 0,65.1901 c 0,87.90478 132.4254,87.90478 132.4254,0 l 0,-65.18807 -56.33233,0 0,62.91924 z m 190.42072,0 c 0,-14.08257 17.71757,-13.85691 17.71757,-0.22769 l 0,64.73674 55.87694,0 0,-67.00964 c 0,-46.56377 -33.61765,-64.50701 -65.41779,-64.28338 -12.49277,0.22973 -26.34765,4.77145 -35.20746,14.3123 -10.22191,-10.22191 -23.16804,-14.3123 -35.8885,-14.3123 -31.57246,0 -64.73471,16.58316 -64.73471,64.28338 l 0,67.00761 55.87694,0 0,-64.73471 c 0,-13.62922 17.48987,-13.85488 17.48987,0.22769 l 0,64.50702 54.28714,0 0,-64.50702 z"
       id="ludum" />
    <path
       style="fill:#e08020;fill-opacity:1;fill-rule:evenodd"
       d="m 373.62757,768.36194 67.28002,0 c 102.66638,0 102.66638,-158.99871 0,-158.99871 l -67.28002,0 z m 58.83089,-61.55511 0,-36.56956 9.58355,0 c 20.21612,0 20.44382,36.56956 0,36.56956 z"
       id="d" />
    <path
       style="fill:#e08020;fill-opacity:1;fill-rule:evenodd"
       d="m 586.59983,637.07298 c -25.53445,-0.36187 -50.24351,15.81266 -60.18487,39.32224 -10.39268,23.16601 -5.6314,52.1098 11.77716,70.62634 13.04371,14.51154 32.74956,22.30402 52.16672,21.32005 l 7.37165,0 0,0.0203 54.51279,0 c -0.0813,-23.29002 0.16874,-46.58411 -0.13417,-69.86803 -1.31332,-25.99594 -19.79327,-49.92432 -44.50842,-57.97703 a 65.505216,65.505216 0 0 0 -21.00086,-3.44186 z m -0.26429,54.33593 c 4.7938,0.0325 9.6364,3.0129 10.8928,7.98562 0.73188,4.8243 0.55094,9.73805 0.47775,14.63961 -4.4238,0.0285 -8.8476,0.0325 -13.25514,-0.1667 -8.61991,-1.25233 -12.37486,-13.22465 -5.91603,-19.12645 2.05943,-2.30948 4.91986,-3.35241 7.79858,-3.33208 z m 132.79337,-50.47323 c -35.65878,0 -60.64432,23.39574 -60.64432,59.05858 l 0,68.36768 55.8749,0 0,-62.50858 c 0,-6.98741 4.39534,-11.5393 11.5393,-11.5393 l 13.44624,0 0,-53.37838 z m 91.10065,-3.8627 c -25.53445,-0.36187 -50.24147,15.81063 -60.18283,39.32224 -10.46587,23.31442 -5.55821,52.47167 12.09431,70.98415 13.1108,14.39565 32.80648,22.01736 52.17281,20.98053 l 61.55917,0 -48.6415,-54.34202 48.68419,0 0,-11.25264 c 0,-22.19424 -11.77512,-44.20144 -30.92596,-55.78343 -10.35202,-6.49339 -22.54594,-9.92916 -34.76019,-9.90883 z m 0,54.28917 c 8.31699,-0.33951 14.38956,9.88647 9.85191,16.97553 -3.95418,7.89616 -16.45508,7.01791 -20.02503,-0.73391 -3.41543,-6.99351 2.12855,-16.46728 10.17312,-16.24365 z"
       id="are" />
  </g>
</svg>
