<?xml version="1.0" encoding="UTF-8" standalone="no"?>
<svg
   xmlns:dc="http://purl.org/dc/elements/1.1/"
   xmlns:cc="http://creativecommons.org/ns#"
   xmlns:rdf="http://www.w3.org/1999/02/22-rdf-syntax-ns#"
   xmlns:svg="http://www.w3.org/2000/svg"
   xmlns="http://www.w3.org/2000/svg"
   xmlns:sodipodi="http://sodipodi.sourceforge.net/DTD/sodipodi-0.dtd"
   xmlns:inkscape="http://www.inkscape.org/namespaces/inkscape"
   version="1.1"
   id="svg3626"
   viewBox="0 0 500 500.00001"
   height="500"
   width="500"
   inkscape:version="0.91 r13725"
   sodipodi:docname="twitter_logo_square.svg">
  <sodipodi:namedview
     pagecolor="#393939"
     bordercolor="#666666"
     borderopacity="1"
     objecttolerance="10"
     gridtolerance="10"
     guidetolerance="10"
     inkscape:pageopacity="0"
     inkscape:pageshadow="2"
     inkscape:window-width="1366"
     inkscape:window-height="705"
     id="namedview3341"
     showgrid="false"
     inkscape:zoom="0.77606341"
     inkscape:cx="65.348316"
     inkscape:cy="207.6301"
     inkscape:window-x="1352"
     inkscape:window-y="308"
     inkscape:window-maximized="1"
     inkscape:current-layer="svg3626"
     inkscape:snap-center="true"
     inkscape:snap-object-midpoints="true" />
  <defs
     id="defs3628" />
  <metadata
     id="metadata3631">
    <rdf:RDF>
      <cc:Work
         rdf:about="">
        <dc:format>image/svg+xml</dc:format>
        <dc:type
           rdf:resource="http://purl.org/dc/dcmitype/StillImage" />
        <dc:title></dc:title>
      </cc:Work>
    </rdf:RDF>
  </metadata>
  <g
     inkscape:groupmode="layer"
     id="layer3"
     inkscape:label="Layer 1">
    <rect
       style="fill:#00aced;fill-opacity:1"
       id="rect3355"
       width="534.75012"
       height="534.75012"
       x="-10.308436"
       y="-12.844689" />
  </g>
  <g
     transform="matrix(1.238712,0,0,1.2387121,-596.96772,-587.06866)"
     id="layer1" />
  <path
     style="fill:#ffffff;stroke:none"
     d="m 184.59975,374.13312 c -26.15033,-1.53672 -58.37197,-11.53071 -80.38416,-24.93226 -3.15474,-1.92068 -3.0536,-1.9407 10.18348,-2.01594 27.03441,-0.15364 49.32414,-6.76184 71.21755,-21.11377 l 9.5529,-6.26228 -9.92887,-1.98003 c -20.45403,-4.079 -37.61953,-16.61735 -46.27003,-33.79746 -2.21081,-4.39073 -4.01928,-8.11986 -4.0188,-8.28696 4.8e-4,-0.1671 5.34556,-0.36081 11.87797,-0.43049 6.53241,-0.0697 13.06958,-0.60514 14.52703,-1.18993 2.39396,-0.96054 1.89745,-1.30518 -5.1402,-3.56808 -20.78443,-6.6831 -38.3515,-26.09553 -42.85801,-47.36008 -0.86502,-4.08173 -1.5814,-8.84187 -1.59195,-10.57809 -0.0158,-2.59729 0.32352,-3.00582 1.91444,-2.30505 9.63377,4.24348 26.8355,8.33058 26.76033,6.35821 -0.0188,-0.49302 -2.21785,-2.54093 -4.8868,-4.55092 -9.07411,-6.83372 -17.74691,-20.42922 -21.09321,-33.06575 -3.44043,-12.99204 -1.67369,-32.43103 3.94929,-43.45298 l 2.25405,-4.4183 8.80763,9.30466 c 31.65142,33.43753 71.42917,52.4911 119.91048,57.43719 l 4.4916,0.45823 -0.0719,-13.40282 c -0.0605,-11.29035 0.34613,-14.67891 2.5803,-21.49926 6.80059,-20.76026 24.23817,-37.2748 45.01918,-42.63611 8.64488,-2.2303 24.53193,-2.24933 33.03243,-0.0396 8.06804,2.09733 19.1803,8.07848 25.74564,13.85753 2.69884,2.37558 5.27854,4.31924 5.73271,4.31924 2.96785,0 21.92432,-6.38724 29.51878,-9.94612 5.01696,-2.35103 9.12173,-3.75493 9.12173,-3.11977 0,0.63514 -1.60661,4.16913 -3.57025,7.85329 -4.0919,7.67721 -11.91123,16.64841 -18.47612,21.19789 -2.48155,1.71971 -4.28141,3.35727 -3.99967,3.639 1.33746,1.33747 23.48334,-4.05982 33.1638,-8.08253 1.65945,-0.68957 1.28392,0.30907 -1.65739,4.40748 -4.15635,5.79148 -24.74816,26.03801 -26.48205,26.03801 -0.62003,0 -1.08601,4.33576 -1.09844,10.22058 -0.14358,68.03114 -40.57605,134.28832 -100.28958,164.34573 -28.81367,14.50366 -61.42001,20.72031 -97.54386,18.59751 z"
     id="path3343"
     inkscape:connector-curvature="0" />
</svg>
