<?xml version="1.0" encoding="UTF-8" standalone="no"?>
<svg xmlns:rdf="http://www.w3.org/1999/02/22-rdf-syntax-ns#" xmlns="http://www.w3.org/2000/svg" height="1e3" viewBox="0 0 1000 1000" width="1e3" version="1.1" xmlns:cc="http://creativecommons.org/ns#" xmlns:dc="http://purl.org/dc/elements/1.1/">
 <metadata>
  <rdf:RDF>
   <cc:Work rdf:about="">
    <dc:format>image/svg+xml</dc:format>
    <dc:type rdf:resource="http://purl.org/dc/dcmitype/StillImage"/>
    <dc:title/>
   </cc:Work>
  </rdf:RDF>
 </metadata>
 <rect height="1e3" width="1e3" y="0" x="0" fill="#2c80bb"/>
 <path d="m4.1e2 3.3e2 -2.2e2 60 1e2 1e2 -1e2 1.8e2 3.3e2 3.3e2h4.8e2v-4.8e2l-1.3e2 -1.2e2 -59-59-86 85-57-57-76 32-61-61-83-3.8 10 57z" fill-opacity=".23" fill-rule="evenodd"/>
 <g id="zw" stroke-opacity="0" transform="matrix(2.3 0 0 2.3 1.2e2 1.3e2)" fill="#e74c3c">
  <path id="z" d="m33 2.3e2c-2.6 0-4.5-0.54-5.7-1.6-1.1-1.2-1.6-3.1-1.6-5.7v-16c0-2.6 0.41-4.7 1.2-6.7 0.81-2 2.9-5 3.9-6.9 0.97-1.9 52-80 52-80l-48-0.25c-2.6-0.014-4.5-0.54-5.7-1.6-1.1-1.2-1.7-3.1-1.6-5.7 0.16-7.4-0.01-22-0.01-22 30 0.11 60 0.046 89 0.046 2.6 0 4.4 0.61 5.5 1.8 1.2 1.1 1.8 2.9 1.8 5.5l0.17 14c0.032 2.7-0.41 5.1-1.2 7.1-0.81 1.9-3.1 4.7-3.9 5.9l-52 81 52 0.33c2.6 0.017 4.4 0.61 5.5 1.8 1.2 1.1 1.8 2.9 1.8 5.5l-0.063 23s-65 0.1-93 0.045z"/>
  <path id="w" d="m2.6e2 85 28 0.21c2.6 0.019 4.4 0.61 5.5 1.8 1.2 1.1 1.8 2.9 1.8 5.5l-25 1.4e2h-32c-4.1 0.051-7.9-4.5-8.3-6.8-0.33-2.2-9.6-66-13-77-0.49-1.7-1.4-1-1.5-0.1l-15 84-31-0.083c-2.2-0.006-4.1-0.68-5.7-2-1.5-1.4-2.6-3.1-3.3-5.3l-24-1.4e2 30-0.068c2.6-0.054 4.4 0.61 5.5 1.8 1.2 1.1 1.8 5.5 1.8 5.5l9.8 1e2 17-98 23-0.12c2.6-0.013 4.7 0.47 6.5 1.4 1.8 0.95 2.9 3.7 3.5 4.9 0.54 1.2 15 91 15 91z"/>
 </g>
</svg>
