<?xml version="1.0" encoding="UTF-8" standalone="no"?>
<svg
   xmlns:dc="http://purl.org/dc/elements/1.1/"
   xmlns:cc="http://creativecommons.org/ns#"
   xmlns:rdf="http://www.w3.org/1999/02/22-rdf-syntax-ns#"
   xmlns:svg="http://www.w3.org/2000/svg"
   xmlns="http://www.w3.org/2000/svg"
   id="svg5291"
   version="1.1"
   width="1000"
   height="1000"
   viewBox="0 0 937.50002 937.50002">
  <metadata
     id="metadata5297">
    <rdf:RDF>
      <cc:Work
         rdf:about="">
        <dc:format>image/svg+xml</dc:format>
        <dc:type
           rdf:resource="http://purl.org/dc/dcmitype/StillImage" />
        <dc:title></dc:title>
      </cc:Work>
    </rdf:RDF>
  </metadata>
  <defs
     id="defs5295" />
  <rect
     style="fill:#0077b5;fill-opacity:1;stroke:none;stroke-width:1.05833328;stroke-opacity:1"
     id="rect5301"
     width="937.5"
     height="937.5"
     x="0"
     y="-1.4077954e-05" />
  <ellipse
     style="fill:#ffffff;fill-opacity:1;stroke:none;stroke-width:1.0517441;stroke-opacity:1"
     id="path5843"
     cx="278.99173"
     cy="257.90091"
     rx="59.899437"
     ry="59.844849" />
  <rect
     style="fill:#ffffff;fill-opacity:1;stroke:none;stroke-width:1.0517441;stroke-opacity:1"
     id="rect5845"
     width="102.92502"
     height="330.63428"
     x="227.14644"
     y="362.50806" />
  <path
     style="fill:#ffffff;fill-opacity:1;fill-rule:evenodd;stroke:none;stroke-width:1.0517441px;stroke-linecap:butt;stroke-linejoin:miter;stroke-opacity:1"
     d="m 493.12807,409.08793 c 0.2996,12.52456 10.58507,-55.11794 107.17736,-55.06179 96.59225,0.0561 114.76785,80.18288 115.08829,142.98994 0.32045,62.80699 0.17413,196.04582 0.17413,196.04582 H 612.84152 c 0,0 -0.24638,-88.6189 0,-181.021 0.24638,-92.40205 -113.09328,-85.87399 -113.86951,-1.63039 -0.77623,84.24359 -1.71464,182.41959 -1.71464,182.41959 l -102.16636,0.082 0.0178,-329.91424 98.10814,-0.17979 z"
     id="path5879" />
</svg>
