<?xml version="1.0" encoding="UTF-8" standalone="no"?>
<svg
   xmlns:dc="http://purl.org/dc/elements/1.1/"
   xmlns:cc="http://creativecommons.org/ns#"
   xmlns:rdf="http://www.w3.org/1999/02/22-rdf-syntax-ns#"
   xmlns:svg="http://www.w3.org/2000/svg"
   xmlns="http://www.w3.org/2000/svg"
   id="svg10"
   viewBox="0 0 1000 1000"
   version="1.1"
   width="1e3"
   height="1e3">
  <defs
     id="defs14" />
  <metadata
     id="metadata2">
    <rdf:RDF>
      <cc:Work
         rdf:about="">
        <dc:format>image/svg+xml</dc:format>
        <dc:type
           rdf:resource="http://purl.org/dc/dcmitype/StillImage" />
        <dc:title></dc:title>
      </cc:Work>
    </rdf:RDF>
  </metadata>
  <rect
     style="fill:#00e4aa;stroke:#fffffc;stroke-width:2.07460594"
     id="rect4"
     x="101.0373"
     y="101.03728"
     width="797.92542"
     height="797.92542" />
  <g
     id="g8"
     transform="matrix(4.50045,0,0,4.50045,291.67416,80.243034)">
    <path
       style="fill:#232221"
       id="path6"
       d="m -64.81,-17.83 h 222.2 v 222.2 h -222.2 z m 91.41,141.2 c -1.7,2.7 -8.3,14 -11,17 0,0.37 0.59,0.68 1,0.51 3.3,-4.5 8.6,-14 11,-17 0.04596,-0.7568 -0.6205,-0.6515 -1,-0.51 z m 0.88,18.6 c 4.4,-0.093 4,-10 -0.27,-9.9 -4.4,0.098 -3.9,10 0.27,9.9 z m -0.25,-8.9 c 3,-8.8e-4 3.4,7.8 0.3,7.8 -3.1,-0.019 -3.3,-7.7 -0.3,-7.8 z m 17,-7.8 c -11,-0.092 -9.8,15 0.16,15 10,-0.021 10,-15 -0.16,-15 z m 0.11,1.3 c 7.9,-0.14 8.7,12 0.065,12 -8.7,0.017 -7.9,-12 -0.065,-12 z m 30,-2.7 h -17 c 0,6 -0.034,12 -0.034,18 5.7,0 12,-0.1 17,-0.1 v -18 z m -57,-0.042 c -3.6,0.043 -3.5,9.5 0.053,9.5 3.8,-0.001 3.6,-9.6 -0.053,-9.5 z m 0.11,8.8 c -2.5,0.024 -3,-7.8 -0.086,-7.9 2.9,-0.052 2.6,7.8 0.086,7.9 z m -10,-20 c 0.57,-0.39 4.3,-0.23 4.7,0.16 0.023,0.81 -0.026,6.2 0.014,10 0.37,0.23 1.8,0.18 2.1,-0.14 -0.025,-0.87 0.22,-2.5 0.22,-6.1 v -6.3 c -2.2,-0.076 -5.6,-0.031 -7.1,-0.082 -0.065,-0.63 -0.012,-1.7 0.013,-2.6 0.28,-0.13 1,-0.29 2.6,-0.26 l 0.083,-1.6 c -1.2,0.032 -3,-0.3 -4,0.78 -1,1.08 -0.39,2.9 -0.61,4 -0.48,0.018 -2.3,-0.01 -3.1,0.007 -0.1,0.23 -0.15,0.84 -0.11,1.4 0.69,0.016 2.7,-0.033 3.2,0.24 0.16,0.6 -0.0011,2.5 -0.0011,5.5 0,2.3 -0.15,4.2 0.19,5 0.61,0.57 1.1,0.21 1.5,0.016 0.15,-3.3 0.27,-8 0.29,-10 z m 73.83,-4.951 c -10.75,0.1246 -10.75,14.83 0,14.83 10.58,0.2233 9.751,-14.67 0,-14.83 z m -68.25,-2.145 c -1.744,0.0564 -1.723,2.272 0.02083,2.216 1.744,-0.0564 1.723,-2.272 -0.02083,-2.216 z m 68.84,-13.49 c -5.29,-3.69 -13.02,-6.14 -35.02,-10.14 -7,-1 -15,-2 -17,-3 -10,-4 -9,-15 1,-20 8.3,-3.7 24,-2.9 30,1.5 5.255,4.221 6.931,8.683 7.89,14.7 h 18 c 0.1673,-16.53 -14.74,-29.76 -26,-33 -24,-7 -49,2 -55,19 -7.81,27.35 21.09,34.82 37,37 18,1.6 24.12,1.075 27.3,6.337 6.016,0.0948 15.42,0.265 20.33,0.1945 -0.3615,-4.596 -3.217,-8.912 -8.499,-12.59 z" />
  </g>
</svg>
