<?xml version="1.0" encoding="UTF-8" standalone="no"?>
<svg
   xmlns:dc="http://purl.org/dc/elements/1.1/"
   xmlns:cc="http://creativecommons.org/ns#"
   xmlns:rdf="http://www.w3.org/1999/02/22-rdf-syntax-ns#"
   xmlns:svg="http://www.w3.org/2000/svg"
   xmlns="http://www.w3.org/2000/svg"
   id="svg2"
   version="1.1"
   width="1000"
   height="1000"
   viewBox="0 0 1000 1000">
  <metadata
     id="metadata8">
    <rdf:RDF>
      <cc:Work
         rdf:about="">
        <dc:format>image/svg+xml</dc:format>
        <dc:type
           rdf:resource="http://purl.org/dc/dcmitype/StillImage" />
        <dc:title></dc:title>
      </cc:Work>
    </rdf:RDF>
  </metadata>
  <defs
     id="defs6" />
  <rect
     style="opacity:1;fill:#2c80bb;fill-opacity:1;fill-rule:nonzero;stroke:none;stroke-width:0.2;stroke-linejoin:round;stroke-miterlimit:4;stroke-dasharray:none;stroke-opacity:1"
     id="rect4240"
     width="1000"
     height="1000"
     x="0"
     y="0" />
  <path
     style="fill:#000;fill-opacity:0.23;fill-rule:evenodd;stroke:none;stroke-width:0.2;stroke-linecap:butt;stroke-linejoin:miter;stroke-miterlimit:4;stroke-dasharray:none;stroke-opacity:1"
     d="M 406.386,334.684 190.094,394.241 290.792,494.94 187.888,665.530 523.978,1000 l 476.022,0 0,-481.236 -129.708,-124.779 -59.398,-59.293 -85.853,85.265 -56.577,-56.933 -76.221,31.851 -60.905,-60.762 -82.620,-3.764 9.953,56.645 z"
     id="path4193" />
  <g
     style="font-style:normal;font-variant:normal;font-weight:normal;font-stretch:normal;font-size:190px;line-height:125%;font-family:Roboto;-inkscape-font-specification:Roboto;letter-spacing:0px;word-spacing:0px;fill:#000000;fill-opacity:1;stroke:none;stroke-width:1px;stroke-linecap:butt;stroke-linejoin:miter;stroke-opacity:1"
     id="zw"
     transform="matrix(2.3118,0,0,2.3118,124.295,133.287)">
    <path
       d="m 32.872,231.8 c -2.575,0 -4.473,-0.542 -5.692,-1.626 -1.084,-1.22 -1.626,-3.117 -1.626,-5.692 l 0,-15.57 c 0,-2.575 0.407,-4.744 1.22,-6.709 0.813,-1.965 2.896,-5.03 3.863,-6.896 0.967,-1.866 51.814,-80.316 51.814,-80.316 l -47.771,-0.25 c -2.575,-0.014 -4.473,-0.542 -5.692,-1.626 -1.084,-1.22 -1.687,-3.118 -1.626,-5.692 0.159,-7.376 -0.01,-22.21 -0.01,-22.21 29.753,0.114 59.508,0.046 89.262,0.046 2.575,0 4.405,0.61 5.489,1.83 1.22,1.084 1.799,2.914 1.83,5.489 l 0.172,14.452 c 0.0323,2.71 -0.407,5.083 -1.22,7.116 -0.813,1.898 -3.108,4.684 -3.863,5.859 l -52.335,81.472 51.69,0.333 c 2.575,0.017 4.405,0.61 5.489,1.83 1.22,1.084 1.83,2.914 1.83,5.489 l -0.063,22.63 c 0,0 -64.51,0.1 -92.76,0.045 z"
       style="font-style:normal;font-variant:normal;font-weight:normal;font-stretch:normal;font-size:203px;font-family:Bungee;-inkscape-font-specification:Bungee;opacity:1;fill:#e74c3c;fill-opacity:1;stroke:#e74c3c;stroke-width:1;stroke-linejoin:round;stroke-miterlimit:4;stroke-dasharray:none;stroke-opacity:0"
       id="z" />
    <path
       d="m 263.90481,85.213948 27.83686,0.208423 c 2.57508,0.01928 4.40488,0.609905 5.48915,1.829716 1.21981,1.084277 1.82972,2.913994 1.82972,5.489151 l -25.05782,138.474882 -31.69097,0 c -4.11282,0.0506 -7.94132,-4.54028 -8.27407,-6.75235 -0.33275,-2.21207 -9.59315,-65.56165 -12.91836,-76.97909 -0.4917,-1.68827 -1.35411,-1.0083 -1.51367,-0.10345 l -14.79792,83.91826 -31.40153,-0.0834 c -2.16855,-0.006 -4.06604,-0.67767 -5.69245,-2.03302 -1.49088,-1.35534 -2.57516,-3.11728 -3.25283,-5.28584 l -24.1164,-138.642806 30.40402,-0.06789 c 2.57456,-0.05359 4.40487,0.609905 5.48915,1.829716 1.21981,1.084277 1.82971,5.489151 1.82971,5.489151 l 9.81458,102.562789 17.33449,-97.798703 22.67064,-0.117902 c 2.57511,-0.01339 4.74371,0.47437 6.50566,1.42311 1.76195,0.94875 2.93532,3.727215 3.47746,4.879255 0.54214,1.15204 15.0115,90.82223 15.0115,90.82223 z"
       style="font-style:normal;font-variant:normal;font-weight:normal;font-stretch:normal;font-size:203.30186462px;font-family:Bungee;-inkscape-font-specification:Bungee;fill:#e74c3c;fill-opacity:1;stroke:#e74c3c;stroke-width:1;stroke-linejoin:round;stroke-miterlimit:4;stroke-dasharray:none;stroke-opacity:0"
       id="w" />
  </g>
</svg>
