<?xml version="1.0" encoding="UTF-8"?>
<svg width="550" height="550" version="1.1" xmlns="http://www.w3.org/2000/svg" xmlns:cc="http://creativecommons.org/ns#" xmlns:dc="http://purl.org/dc/elements/1.1/" xmlns:rdf="http://www.w3.org/1999/02/22-rdf-syntax-ns#">
 <metadata>
  <rdf:RDF>
   <cc:Work rdf:about="">
    <dc:format>image/svg+xml</dc:format>
    <dc:type rdf:resource="http://purl.org/dc/dcmitype/StillImage"/>
    <dc:title/>
   </cc:Work>
  </rdf:RDF>
 </metadata>
 <path d="m97 0c-12 0-22 9.7-22 22v508c0 12 9.7 22 22 22h356c12 0 22-9.7 22-22v-396l-0.1-1.2c0-2.5-0.8-5-2.6-7l-106-121c-0.7-0.8-1.4-1.4-2.2-1.9-0.87-0.56-1.8-1-2.8-1.3l-0.6-0.2c-0.82-0.2-1.7-0.3-2.5-0.3zm0 22h250v111c0 6 4.8 11 11 11h95v224h-356v-0.2zm182 372h82l0.18 28h-62v29h62v75h-82v-19h62v-31h-62zm-9 0v27l-29 0.26c-1e-3 35 0.09 70-0.92 105-8.1-1e-5 -24 1e-5 -24 1e-5l-34 0.15-5e-3 -19 34-0.095s-0.32-77 0.056-86c-4.9 0.26-34 0-34 0v-27s52 0.046 88 0z"/>
</svg>
