<svg width="550" height="550" version="1.1" xmlns="http://www.w3.org/2000/svg">
 <path d="m97 0c-12 0-22 9.7-22 22v508c0 12 9.7 22 22 22h356c12 0 22-9.7 22-22v-396l-0.1-1.2c0-2.5-0.8-5-2.6-7l-106-121c-0.7-0.8-1.4-1.4-2.2-1.9-0.87-0.56-1.8-1-2.8-1.3l-0.6-0.2c-0.82-0.2-1.7-0.3-2.5-0.3zm0 22h250v111c0 6 4.8 11 11 11h95v224h-356v-0.2zm243 372h101l-8.6e-4 73h-50v-23h26v-25h-52v25h26v23h-26v58c-8.4 1e-5 -18 0-25 0l-1e-3 -58zm-9 0.11-0.013 24-41 0.45v81h41v25h-110v-25h39v-81l-39 2e-5 0.25-25zm-221-4.2e-4h101l0.12 25-75 81h75v25l-101 8e-4c-2.3e-4 -5.3-9.6e-4 -20-9.6e-4 -25 9.2-10 71-77 75-82-3.7 0.15-68 0.15-75-4e-5 -2e-3 -8.1-3e-3 -16-3e-3 -25z"/>
 <path d="m246 36h60v21h-60zm0 38h60v21h-60zm0 36h60v21h-60zm0 40h60v21h-60zm0 40h60v21h-60zm0 40h60v49h-60zm14-209h30v229h-30z"/>
</svg>
