<svg width="550" height="550" version="1.1" xmlns="http://www.w3.org/2000/svg">
 <path d="m97 0c-12 0-22 9.7-22 22v508c0 12 9.7 22 22 22h356c12 0 22-9.7 22-22v-396l-0.1-1.2c0-2.5-0.8-5-2.6-7l-106-121c-0.7-0.8-1.4-1.4-2.2-1.9-0.87-0.56-1.8-1-2.8-1.3l-0.6-0.2c-0.82-0.2-1.7-0.3-2.5-0.3h-261zm0 22h250v111c0 6 4.8 11 11 11h95v224h-356v-0.2-345zm243 372h101v25h-76v25h76v81h-101l-0.0098-25 76 0.44v-33h-76l0.023-73zm-52 0.047c3.9 0.0069 7.1 0.025 9.1 0.066 7.9 0.16 34 0 34 0l-0.021 25h-85v25h85v81h-110v-25h85v-33h-85l0.33-48-0.086-25s29-0.01 34 0c3.9 0.0075 21-0.087 33-0.066zm-178 0.066h101v25l-75 0.018v81h75v25h-101c0.35-44-0.025-87-0.025-131z"/>
 <path d="m174 148h120a7.2 7.2 0 0 0 0-14h-120a7.2 7.2 0 1 0 0 14zm196 43h-197a7.2 7.2 0 0 0-7.2 7.2 7.2 7.2 0 0 0 7.2 7.2h197a7.2 7.2 0 0 0 0-14zm0 57h-197a7.2 7.2 0 0 0-7.2 7.2 7.2 7.2 0 0 0 7.2 7.2h197a7.2 7.2 0 0 0 0-14zm0 58h-197a7.2 7.2 0 0 0-7.2 7.2 7.2 7.2 0 0 0 7.2 7.2h197c4 0 7.2-3.2 7.2-7.2a7.2 7.2 0 0 0-7.2-7.2z"/>
</svg>
