<?xml version="1.0" encoding="UTF-8"?>
<svg width="550" height="550" version="1.1" xmlns="http://www.w3.org/2000/svg" xmlns:cc="http://creativecommons.org/ns#" xmlns:dc="http://purl.org/dc/elements/1.1/" xmlns:rdf="http://www.w3.org/1999/02/22-rdf-syntax-ns#">
 <metadata>
  <rdf:RDF>
   <cc:Work rdf:about="">
    <dc:format>image/svg+xml</dc:format>
    <dc:type rdf:resource="http://purl.org/dc/dcmitype/StillImage"/>
    <dc:title/>
   </cc:Work>
  </rdf:RDF>
 </metadata>
 <path d="m97 0c-12 0-22 9.7-22 22v508c0 12 9.7 22 22 22h356c12 0 22-9.7 22-22v-396l-0.1-1.2c0-2.5-0.8-5-2.6-7l-106-121c-0.7-0.8-1.4-1.4-2.2-1.9-0.87-0.56-1.8-1-2.8-1.3l-0.6-0.2c-0.82-0.2-1.7-0.3-2.5-0.3zm0 22h250v111c0 6 4.8 11 11 11h95v224h-356v-0.2zm182 372h15l25 68 28-68h14v131l-14 1e-5 0.29-79-27 53-24-53-1.2 79-16-1e-5zm-99 2e-5v131h-18l1-53h-42l-0.15 53h-19v-131h18l-0.29 52h44l-0.15-52zm90-2e-5v27l-29 0.26c-1e-3 35 0.09 70-0.92 105-8.1-1e-5 -16 0-24 1e-5 0.04-9.9-0.51-93-9e-5 -105-4.9 0.26-25 0.26-28 0 0-6-3e-3 -25 0-27 37 0.3 46 0.046 83 0z"/>
 <path d="m372 394h22v105h53v26l-75-2e-5z" fill="#fff"/>
 <path d="m161 248 93 96-47-0.034-96-96 96-96 47-0.33z" stroke="#000" stroke-linejoin="bevel" stroke-width=".38"/>
 <path d="m384 248-93 96 47-0.034 96-96-96-96-47-0.33z" stroke="#000" stroke-linejoin="bevel" stroke-width=".38"/>
</svg>
