<svg xmlns="http://www.w3.org/2000/svg" width="550" height="550"><path d="M475.1 132c0-2.5-.8-5-2.6-7L366.3 3.7c-.7-.8-1.4-1.4-2.2-1.9a11 11 0 0 0-2.8-1.3l-.6-.2a10.6 10.6 0 0 0-2.5-.3h-261c-12 0-21.6 9.7-21.6 21.6v507.6c0 12 9.7 21.6 21.6 21.6h356.4c12 0 21.6-9.7 21.6-21.6v-396l-.1-1.2zM210.6 418.6h-35.8v106.1H145V418.6h-35.2v-24.9h100.7v25zm88.2 106.1L287 501c-4.9-9.1-8-16-11.7-23.5h-.4c-2.7 7.6-6 14.4-10 23.5l-11 23.7h-33.8l37.9-66.2-36.5-64.8h34l11.4 24c4 7.9 6.8 14.3 10 21.7h.3c3.1-8.4 5.7-14.2 9-21.8l11-23.9h33.9l-37 64 39 67h-34.3zm142.1-106h-35.7v106h-29.8V418.6h-35.2v-24.9H441v25zm-343.7-52V21.7h250.2v110.5c0 6 4.8 10.8 10.8 10.8h95.4v223.9H97.2z"/><path d="M174.4 148.3h119.8a7.2 7.2 0 0 0 0-14.4H174.4a7.2 7.2 0 1 0 0 14.4zm196.4 43.1H174.2a7.2 7.2 0 0 0-7.2 7.2 7.2 7.2 0 0 0 7.2 7.2h196.6a7.2 7.2 0 0 0 0-14.4zm0 57.2H174.2a7.2 7.2 0 0 0-7.2 7.2 7.2 7.2 0 0 0 7.2 7.2h196.6a7.2 7.2 0 0 0 0-14.4zm0 58.5H174.2a7.2 7.2 0 0 0-7.2 7.2 7.2 7.2 0 0 0 7.2 7.2h196.6c4 0 7.2-3.2 7.2-7.2a7.2 7.2 0 0 0-7.2-7.2z"/></svg>