<svg xmlns:rdf="http://www.w3.org/1999/02/22-rdf-syntax-ns#" xmlns="http://www.w3.org/2000/svg" height="1e3" width="1e3" version="1.1" xmlns:cc="http://creativecommons.org/ns#" xmlns:dc="http://purl.org/dc/elements/1.1/" viewBox="0 0 1000 1000">
<path d="m0 1e3h1e3v-1e3h-1e3v1e3z" fill="#231f20"/>
<g fill="#fff">
<path d="m500 250c-138 0-250 115-250 256 0 113 71.6 209 171 243 12.5 2.37 17.1-5.56 17.1-12.3 0-6.11-0.34-47.7-0.34-47.7-69.6 15.5-84.2-30.2-84.2-30.2-11.4-29.6-27.8-37.5-27.8-37.5-22.7-15.9 1.71-15.6 1.71-15.6 25.1 1.81 38.3 26.4 38.3 26.4 22.3 39.2 58.2 27.7 72.5 21.2 2.25-16.6 8.34-28.5 15.5-34.9-58-7-114-28.1-114-126 0-28 6.57-50.2 23.3-69-3-7-11-33 2.43-67.8 0 0 22.8-7.44 71 26 20-6 42-7.95 63-8 21 0 41.9 3.42 62 9 48-33 69.2-27.1 69.2-27.1 14 36 6 61 2.76 68.1 16 18 25 41 25 69 0 98-58 120-114 126 9 8 17 19 17 48v70c0 7 4.33 15.1 17 12.5 99-33.6 171-130 171-243 0-142-112-256-250-256" fill-rule="evenodd"/>
<path d="m345 618c-0.551 1.28-2.5 1.66-4.28 0.781-1.82-0.836-2.83-2.57-2.24-3.85 0.538-1.31 2.49-1.67 4.31-0.798 1.81 0.836 2.85 2.59 2.22 3.87"/>
<path d="m355 630c-1.19 1.13-3.53 0.607-5.1-1.18-1.64-1.79-1.94-4.18-0.733-5.33 1.23-1.13 3.49-0.602 5.13 1.18 1.64 1.81 1.96 4.18 0.712 5.33"/>
<path d="m365 644c-1.53 1.09-4.04 0.0732-5.59-2.21-1.53-2.28-1.53-5.02 0.0363-6.11 1.55-1.1 4.02-0.108 5.59 2.15 1.53 2.32 1.53 5.05-0.0365 6.17"/>
<path d="m378 659c-1.37 1.55-4.29 1.13-6.43-0.979-2.19-2.07-2.79-5-1.42-6.55 1.39-1.55 4.33-1.12 6.48 0.98 2.17 2.06 2.83 5.02 1.37 6.55"/>
<path d="m397 667c-0.609 2.01-3.42 2.92-6.25 2.06-2.83-0.878-4.68-3.23-4.11-5.25 0.588-2.02 3.41-2.97 6.26-2.06 2.82 0.874 4.68 3.21 4.09 5.25"/>
<path d="m417 668c0.0717 2.11-2.33 3.87-5.3 3.91-2.99 0.0727-5.41-1.64-5.44-3.72 0-2.14 2.35-3.87 5.34-3.92 2.97-0.0583 5.41 1.64 5.41 3.74"/>
<path d="m436 665c0.356 2.06-1.71 4.18-4.66 4.74-2.9 0.547-5.59-0.73-5.96-2.77-0.36-2.11 1.74-4.23 4.64-4.78 2.96-0.527 5.6 0.712 5.98 2.81"/>
</g>
</svg>
