<?xml version="1.0" encoding="UTF-8" standalone="no"?>
<svg
   xmlns:dc="http://purl.org/dc/elements/1.1/"
   xmlns:cc="http://creativecommons.org/ns#"
   xmlns:rdf="http://www.w3.org/1999/02/22-rdf-syntax-ns#"
   xmlns:svg="http://www.w3.org/2000/svg"
   xmlns="http://www.w3.org/2000/svg"
   xmlns:sodipodi="http://sodipodi.sourceforge.net/DTD/sodipodi-0.dtd"
   xmlns:inkscape="http://www.inkscape.org/namespaces/inkscape"
   version="1.1"
   id="svg2"
   width="1000"
   height="1000"
   viewBox="0 0 1000 1000"
   sodipodi:docname="LDStats.svg"
   inkscape:version="0.92.2 (5c3e80d, 2017-08-06)">
  <sodipodi:namedview
     pagecolor="#ffffff"
     bordercolor="#666666"
     borderopacity="1"
     objecttolerance="10"
     gridtolerance="10"
     guidetolerance="10"
     inkscape:pageopacity="1"
     inkscape:pageshadow="2"
     inkscape:window-width="1446"
     inkscape:window-height="904"
     id="namedview8"
     showgrid="false"
     inkscape:zoom="0.944"
     inkscape:cx="520.846"
     inkscape:cy="178.97062"
     inkscape:window-x="2894"
     inkscape:window-y="75"
     inkscape:window-maximized="0"
     inkscape:current-layer="svg2" />
  <metadata
     id="metadata8">
    <rdf:RDF>
      <cc:Work
         rdf:about="">
        <dc:format>image/svg+xml</dc:format>
        <dc:type
           rdf:resource="http://purl.org/dc/dcmitype/StillImage" />
        <dc:title></dc:title>
      </cc:Work>
    </rdf:RDF>
  </metadata>
  <defs
     id="defs6" />
  <rect
     style="fill:#ffffff;fill-opacity:1;fill-rule:nonzero;stroke:none;stroke-width:7.42677164;stroke-miterlimit:4;stroke-dasharray:none;stroke-opacity:1"
     id="rect814"
     width="681.14404"
     height="171.61017"
     x="161.01695"
     y="580.50848" />
  <rect
     style="fill:#f79122;fill-opacity:1;fill-rule:nonzero;stroke:none;stroke-width:9.28346443;stroke-miterlimit:4;stroke-dasharray:none;stroke-opacity:1"
     id="rect839"
     width="635.59326"
     height="164.19489"
     x="179.02542"
     y="426.9068" />
  <rect
     style="fill:#e05030;fill-opacity:1;fill-rule:nonzero;stroke:none;stroke-width:9.28346443;stroke-miterlimit:4;stroke-dasharray:none;stroke-opacity:1"
     id="rect837"
     width="637.71191"
     height="179.02544"
     x="179.02542"
     y="247.88135" />
  <path
     style="fill:#1f2429;fill-opacity:1;stroke-width:1.66666675"
     d="M 0,500 V 0 H 499.99999 1000 v 500 500 H 499.99999 0 Z m 265.90229,213.5339 c 13.23973,-6.01399 18.98572,-17.35714 16.65742,-32.88341 -1.83379,-12.22854 -11.00514,-20.12285 -31.60535,-27.20459 -18.50597,-6.36179 -26.37102,-12.03191 -26.37102,-19.0116 0,-9.62014 12.81413,-16.16115 25.152,-12.8389 7.39388,1.99096 11.11383,5.5621 13.7897,13.23809 1.86623,5.35351 2.05885,5.44045 10.83897,4.89177 8.46435,-0.52892 9.02368,-0.31522 10.53411,4.02474 1.16227,3.33951 2.71712,4.58334 5.72947,4.58334 8.44265,0 9.37187,3.02541 9.37866,30.53571 0.005,22.20829 0.40621,25.95364 3.28162,30.66955 3.74858,6.14796 7.72224,7.5495 19.32259,6.81521 l 8.22289,-0.52047 0.5125,-7.08334 c 0.28186,-3.89584 -0.0931,-7.14584 -0.83334,-7.22221 -0.74021,-0.0764 -3.14529,-0.3343 -5.3446,-0.57314 -7.1846,-0.7802 -8.50334,-4.9329 -8.47571,-26.68986 0.0134,-11.05398 0.6671,-21.11053 1.45122,-22.34789 0.78414,-1.23739 3.96015,-2.76425 7.05783,-3.39306 5.2114,-1.05789 5.67037,-1.66794 6.1446,-8.1669 0.49617,-6.80004 0.35406,-7.0236 -4.46429,-7.0236 -7.06435,0 -10.21489,-3.89205 -10.21489,-12.61905 v -7.38095 h -8.33332 -8.33334 l -0.0255,7.08332 c -0.0335,9.2967 -1.65702,11.50545 -9.38422,12.76708 l -6.4236,1.04876 -5,-9.95809 c -4.25333,-8.47101 -6.3351,-10.65372 -13.94032,-14.61626 -18.1472,-9.45519 -46.49336,-4.62175 -55.16306,9.40611 -2.49335,4.03433 -3.3937,8.32448 -3.38564,16.13245 0.018,17.50515 7.10485,24.67989 32.84885,33.2565 8.63044,2.87524 17.6426,6.90579 20.02705,8.9568 5.91545,5.08825 5.85452,12.93949 -0.147,18.941 -3.91883,3.91883 -5.7871,4.47688 -14.86111,4.439 -12.58265,-0.0525 -18.17014,-3.25731 -21.89064,-12.55576 -2.61386,-6.53271 -2.67656,-6.56759 -11.80798,-6.56759 -8.4199,0 -9.17713,0.31055 -9.14357,3.75 0.055,5.6282 5.81012,17.21529 10.71295,21.5687 7.47774,6.63979 17.21687,9.49545 32.58379,9.55405 10.27883,0.0391 16.01515,-0.78561 20.90228,-3.00551 z m 122.43106,1.63415 c 1.375,-0.01 6.625,0.13666 11.66666,0.32429 8.8814,0.33037 9.1504,0.21132 8.64395,-3.82568 -0.28749,-2.29166 -1.03749,-17.42627 -1.66666,-33.63247 -1.30173,-33.52954 -2.14553,-35.87309 -15.34468,-42.61753 -18.51576,-9.46107 -48.29927,1.6229 -48.29927,17.97468 0,4.74836 0.29477,4.942 7.5235,4.942 6.30562,0 8.269,-0.83438 12.12897,-5.15445 6.00183,-6.7172 14.94225,-7.37309 21.13974,-1.55084 4.7766,4.48736 5.46885,9.19806 1.57146,10.69364 -1.44996,0.55641 -5.81385,1.01165 -9.6975,1.01165 -11.75245,0 -23.43182,4.36707 -29.17597,10.90931 -4.68163,5.33205 -5.15345,6.90479 -5.1198,17.06535 0.0404,12.19879 1.99535,16.18815 10.85031,22.14159 4.26434,2.86702 6.8983,3.21572 19.11261,2.53025 7.79168,-0.43729 15.29168,-0.80259 16.66668,-0.81179 z M 367.18051,699.984 c -2.00906,-0.80925 -4.87486,-3.33641 -6.36845,-5.61591 -4.87935,-7.44683 2.40445,-15.16874 16.07561,-17.04259 12.20368,-1.6727 16.87379,5.7764 9.49918,15.1517 -2.86999,3.64859 -12.76125,9.60554 -15.0833,9.08381 -0.25863,-0.0581 -2.11399,-0.76775 -4.12304,-1.57701 z m 94.16535,8.766 c 0.49675,-6.86634 0.36,-7.08334 -4.46425,-7.08334 -9.15612,0 -10.215,-2.82831 -10.215,-27.28571 0,-23.87274 0.72375,-26.04761 8.66675,-26.04761 4.41975,0 4.66663,-0.39684 4.66663,-7.5 0,-7.10318 -0.24688,-7.5 -4.66663,-7.5 -6.62937,0 -8.66675,-2.84139 -8.66675,-12.0871 v -8.0871 l -8.75,0.50376 -8.75,0.50376 -0.0462,8.00629 c -0.0512,8.8161 -2.0213,11.09335 -9.63245,11.13486 -4.46529,0.0244 -4.65574,0.34655 -4.16667,7.04913 0.4716,6.46311 0.9515,7.11271 6.01375,8.14012 3.02568,0.6141 6.02568,1.64424 6.66662,2.2892 0.641,0.64498 1.26913,10.66943 1.39575,22.27654 0.3695,33.86139 0.249,32.92729 4.978,38.5474 4.19,4.97956 4.8415,5.17865 15.41663,4.7112 l 11.04175,-0.48806 z m 29.34863,4.16666 c -0.0762,-1.60416 -0.26388,-20.16666 -0.41675,-41.25 l -0.27775,-38.33332 h -8.33338 -8.33325 v 41.75376 41.75376 l 8.75,-0.50376 c 7.09575,-0.40854 8.72375,-1.05519 8.61113,-3.42044 z m 68.73312,-0.48147 c 11.935,-6.99439 15.4865,-18.932 9.14825,-30.7503 -3.48925,-6.50604 -13.16762,-12.11855 -26.07587,-15.12144 -10.161,-2.36379 -15.83338,-5.7268 -15.83338,-9.3873 0,-8.63774 14.739,-12.19051 21.12788,-5.09281 1.8565,2.0625 3.83875,5.0625 4.40487,6.66666 0.79575,2.25491 2.93188,2.91666 9.415,2.91666 h 8.38563 v -5.58686 c 0,-12.4119 -12.58888,-22.69096 -29.50813,-24.09405 -7.04262,-0.58404 -10.53112,0.12437 -17.56937,3.5679 -10.72888,5.24911 -14.58913,11.20054 -14.58913,22.49196 0,11.38073 5.46275,16.8149 21.96425,21.84923 17.3675,5.29855 19.2775,6.19697 21.33088,10.03372 2.65287,4.95705 -4.37263,11.7381 -12.16125,11.7381 -6.25038,0 -13.67138,-4.86682 -15.31438,-10.04347 -0.87075,-2.7435 -2.54775,-3.28985 -10.0985,-3.28985 -7.991,0 -9.05437,0.39777 -9.05437,3.38686 0,5.09876 4.073,13.69679 8.25425,17.42471 6.2715,5.5915 12.04112,7.2455 25.766,7.38639 11.25912,0.1155 14.2425,-0.48324 20.40737,-4.09611 z M 621.34587,708.75 c 0.479,-6.6205 0.234,-7.08334 -3.75,-7.08334 -2.34438,0 -5.7625,-1.5 -7.59588,-3.33332 -2.98812,-2.9882 -3.33337,-5.55555 -3.33337,-24.79594 0,-23.24221 0.449,-24.48965 9.16675,-25.47325 4.58537,-0.51736 5.0425,-1.15155 5.5125,-7.64749 0.49675,-6.86632 0.36,-7.08332 -4.46425,-7.08332 -7.01313,0 -10.215,-3.90049 -10.215,-12.44399 v -7.2059 l -7.08326,-0.74881 c -3.89587,-0.41188 -7.64587,-0.44639 -8.33337,-0.0766 -0.6875,0.36968 -1.2615,3.81538 -1.2755,7.6571 -0.0325,8.93564 -1.56888,11.21698 -8.509,12.6364 -5.256,1.07498 -5.63213,1.59254 -5.63213,7.75024 0,6.19371 0.3245,6.62979 5.2925,7.11134 2.91088,0.28216 6.04563,1.42045 6.96613,2.52955 0.92287,1.11201 1.91312,14.59176 2.2075,30.0518 l 0.53387,28.03522 4.76325,4.0934 c 4.12588,3.54564 6.13326,4.02763 15.00001,3.60188 l 10.23675,-0.49155 z M 651.66662,675 v -41.66666 h -8.33325 -8.33338 V 675 716.66666 h 8.33338 8.33325 z m 70.26687,36.8557 c 5.16175,-3.27345 8.781,-7.27924 11.32488,-12.53415 4.9595,-10.24501 3.8575,-12.65334 -5.57788,-12.18889 -6.48675,0.31934 -7.97375,1.12974 -11.37725,6.20068 -7.35362,10.956 -21.63625,10.46232 -28.29712,-0.97809 -9.94725,-17.08525 -1.384,-44.02191 13.99487,-44.02191 7.13913,0 12.72225,3.93056 15.69738,11.05115 2.16337,5.17741 2.92212,5.61551 9.72562,5.61551 4.05863,0 7.85325,-0.76685 8.4325,-1.70411 1.79438,-2.90328 -4.03975,-17.52849 -8.81775,-22.105 -9.61987,-9.21424 -23.1995,-11.76584 -37.2105,-6.9918 -16.45225,5.60586 -23.06987,17.17786 -23.125,40.43777 -0.04,17.08559 2.22363,24.75745 9.63513,32.64944 6.52625,6.94931 12.98625,9.24151 26.252,9.31514 10.16087,0.0564 12.787,-0.58793 19.34312,-4.74574 z m 75.71875,1.40396 C 805.65012,709.38794 810,702.1036 810,692.58201 c 0,-14.43547 -7.80175,-20.65452 -34.55501,-27.54486 -8.74512,-2.25234 -11.79437,-6.8962 -8.165,-12.4352 5.20988,-7.95134 19.6795,-5.37374 22.97988,4.09364 1.72075,4.93625 2.1155,5.11306 10.34788,4.63487 l 8.55887,-0.49712 -0.45287,-5.63765 c -0.69413,-8.63904 -5.32688,-14.87084 -14.42538,-19.40485 -14.948,-7.4489 -33.23875,-4.29495 -43.10725,7.43321 -3.53263,4.19825 -4.5145,7.10065 -4.5145,13.34574 0,13.06887 9.2425,21.21297 28.695,25.28492 18.3445,3.84004 22.3555,16.59204 6.03712,19.19399 -7.60137,1.21204 -14.30862,-1.69909 -17.71762,-7.68976 -2.53588,-4.45635 -3.71488,-5.00569 -10.7645,-5.01508 -7.82388,-0.01 -7.9165,0.0529 -7.91038,5.40614 0.0125,7.79296 5.18925,15.17351 13.55725,19.31555 9.97113,4.9356 29.09788,5.03059 39.08875,0.19411 z M 489.66661,621.33334 c 1.1,-1.1 2,-4.325 2,-7.16668 0,-2.84166 -0.9,-6.06666 -2,-7.16666 -1.1,-1.1 -4.325,-2 -7.16662,-2 -2.84163,0 -6.06663,0.9 -7.16663,2 -1.1,1.1 -2,4.325 -2,7.16666 0,2.84168 0.9,6.06668 2,7.16668 1.1,1.1 4.325,2 7.16663,2 2.84162,0 6.06662,-0.9 7.16662,-2 z m 161.66676,0 c 2.83162,-2.8317 2.48037,-10.61485 -0.61913,-13.71429 -5.914,-5.91411 -17.38087,-1.5944 -17.38087,6.54761 0,2.16073 1.1785,5.10715 2.619,6.54763 3.092,3.09196 12.52825,3.47175 15.381,0.61905 z m -273.83336,-66.606 c 10.49665,-5.59179 19.14071,-14.62955 25.24424,-26.394 4.45642,-8.58973 4.75576,-10.42545 4.75576,-29.16668 0,-18.74121 -0.29934,-20.57695 -4.75576,-29.16666 -6.10353,-11.76445 -14.74759,-20.80221 -25.24424,-26.394 -8.26424,-4.40251 -8.62359,-4.43934 -43.33334,-4.43934 h -35 l -0.43873,58.32385 c -0.2413,32.07813 -0.0565,59.31995 0.4107,60.5374 0.67777,1.76624 7.83938,2.10495 35.43872,1.67615 33.77031,-0.52467 34.78664,-0.64251 42.92265,-4.97672 z m -32.91666,-41.4872 c -2.34969,-1.40104 -2.91668,-4.08815 -2.91668,-13.82295 0,-12.43233 1.57143,-16.08385 6.92159,-16.08385 12.59355,0 19.50871,16.1495 10.99509,25.67765 -4.36354,4.88347 -10.84013,6.70951 -15,4.22915 z m 171.25001,15.0932 c 0,-27.83658 -0.34112,-31.5705 -3.5095,-38.41803 -8.52487,-18.4243 -23.307,-28.3034 -44.22887,-29.55867 -11.22025,-0.67319 -13.90163,-0.23219 -22.5,3.70042 -12.46288,5.7002 -17.98128,11.00009 -24.40939,23.44294 -4.42384,8.5632 -5.16768,11.796 -5.17694,22.5 -0.0181,20.95371 9.63724,36.48815 28.14283,45.27874 l 10.01512,4.75741 30.83338,-0.43474 30.83337,-0.43475 z m -55.25475,-10.78235 c -5.45462,-3.82055 -5.97825,-8.96955 -1.37975,-13.56805 4.47975,-4.4797 7.20413,-4.9368 11.322,-1.8996 3.74425,2.7616 6.19163,11.5825 4.20063,15.14012 -1.92213,3.43465 -9.45775,3.60918 -14.14288,0.32753 z m 104.42138,16.06002 c 0.90587,-27.7788 1.39962,-29.10452 11.66662,-31.3226 8.74713,-1.8897 8.47388,-1.19836 7.97338,-20.17452 l -0.47338,-17.94723 -12.053,-0.48906 c -16.15862,-0.65566 -24.22812,1.79699 -33.2385,10.1024 -13.56725,12.50591 -14.62162,16.02514 -15.25525,50.9189 -0.305,16.79274 -0.1335,31.62916 0.381,32.96984 0.76213,1.9862 4.56788,2.3506 20.55063,1.96776 l 19.61512,-0.46984 z M 687.29437,558.666 c 0.4535,-0.7337 -5.87725,-8.94181 -14.06825,-18.24025 -8.191,-9.29844 -14.89275,-18.04596 -14.89275,-19.43896 0,-2.06009 3.0325,-2.62178 16.25,-3.00978 l 16.25,-0.47701 0.50225,-9.66331 c 0.38562,-7.42035 -0.423,-11.67574 -3.48363,-18.33334 -8.78687,-19.11316 -21.72525,-27.86484 -43.09037,-29.14671 -11.2165,-0.67298 -13.9045,-0.23138 -22.5,3.69645 -11.92138,5.44765 -19.48688,12.45797 -25.30376,23.44691 -3.77075,7.1237 -4.41112,10.3897 -4.41112,22.5 0,12.1103 0.64037,15.3763 4.41112,22.5 5.71051,10.78799 13.31151,17.92974 24.70876,23.21589 8.66525,4.01895 10.68862,4.25245 36.985,4.26782 15.30012,0.009 28.18937,-0.58401 28.64275,-1.31771 z m -51.53675,-42.75691 c -2.25,-2.25 -4.091,-4.90909 -4.091,-5.90909 0,-2.73486 7.81562,-10 10.75762,-10 3.652,0 9.24238,6.04861 9.24238,10 0,3.95139 -5.59038,10 -9.24238,10 -1.41662,0 -4.41662,-1.84091 -6.66662,-4.09091 z M 482.77411,404.83836 c 11.76413,-5.61846 19.42938,-13.53075 24.7965,-25.59565 3.45188,-7.75941 3.80938,-11.59821 4.62513,-49.66705 0.75462,-35.21327 0.519,-41.62277 -1.60813,-43.75 -3.19425,-3.19416 -35.47387,-3.60602 -38.58762,-0.49232 -1.1,1.1 -2,5.45 -2,9.66666 0,9.67106 -2.04188,11.66666 -11.9375,11.66666 -19.66588,0 -39.21198,13.7559 -46.32013,32.59853 -7.43196,19.70105 -2.07631,44.44617 12.36361,57.12461 17.70489,15.54509 37.76164,18.43339 58.66814,8.44856 z m -30.512,-40.80086 c -5.5925,-8.53519 2.58263,-17.77771 13.33713,-15.0785 3.63025,0.91111 4.40075,2.05541 4.40075,6.53525 0,12.0357 -11.7435,17.69184 -17.73788,8.54325 z m -82.97566,43.16934 c 11.08385,-3.76924 26.27842,-18.83938 29.25945,-29.01979 1.3941,-4.76095 2.17696,-17.9311 2.22037,-37.35371 l 0.067,-30 h -20.83332 -20.83334 l -0.83334,26.00122 c -0.86147,26.88183 -2.075,31.49878 -8.27902,31.49878 -6.98048,0 -8.27368,-4.6873 -8.75903,-31.74794 l -0.46187,-25.75206 h -20.83334 -20.83334 l 0.0112,31.66666 c 0.01,28.59801 0.34901,32.39345 3.49346,39.16666 4.81137,10.36378 15.90922,20.88518 26.20524,24.84404 10.94916,4.21004 29.1543,4.52365 40.40946,0.69614 z m 227.17904,-3.07625 c 5.02763,-2.74498 11.44925,-8.14788 14.62063,-12.30129 9.06425,-11.87104 10.73087,-20.4962 10.20537,-52.81521 l -0.45812,-28.18075 h -20 -20.00001 l -0.83337,25.24697 c -0.71838,21.76533 -1.27113,25.73008 -4.00825,28.75 -1.74625,1.92665 -4.467,3.50303 -6.046,3.50303 -6.204,0 -7.4175,-4.61695 -8.27913,-31.49878 l -0.83325,-26.00122 -18.92812,-0.47293 c -12.52888,-0.31302 -19.71313,0.17858 -21.25,1.45408 -1.76388,1.4639 -2.314,6.98471 -2.28888,22.97291 0.0562,35.61514 3.01288,48.36281 13.9035,59.93814 10.74788,11.42342 21.3915,15.32725 40.23013,14.75531 12.95362,-0.39326 16.22312,-1.12316 23.9655,-5.35026 z m -306.6168,1.88506 c 1.28525,-1.54861 1.76773,-9.15286 1.45408,-22.91666 L 290.83334,362.5 271.30211,361.66666 c -15.77192,-0.67292 -20.10265,-1.40552 -22.5,-3.80612 -2.60237,-2.6059 -3.07162,-7.337 -3.8021,-38.33334 l -0.83334,-35.36054 h -20.83333 -20.83333 v 45 c 0,42.9614 0.1635,45.30543 3.60951,51.74159 5.19732,9.70711 16.9465,19.86199 26.52177,22.92285 12.46962,3.9861 13.41,4.10161 35.08132,4.3089 15.4111,0.14734 20.66951,-0.35724 22.13608,-2.12435 z m 380.1513,-25.73685 c 0.74925,-24.4732 1.16,-27.45965 4.06863,-29.58334 4.00812,-2.92647 4.521,-2.92652 8.5295,-8.5e-4 2.90875,2.12295 3.31937,5.10889 4.0685,29.58334 L 687.49999,407.5 h 19.16663 19.16675 l 0.83325,-27.2212 c 0.74925,-24.4732 1.16,-27.45965 4.06862,-29.58334 4.24988,-3.10295 5.30075,-2.99276 9.26475,0.9712 3.03463,3.0346 3.33338,5.55555 3.33338,28.12928 0,19.17396 0.527,25.23325 2.32412,26.72482 1.53013,1.2699 8.5055,1.76669 20.41675,1.45408 l 18.09238,-0.47484 0.45537,-30.6905 c 0.34663,-23.36525 -0.137,-32.71361 -2.02612,-39.16666 -5.34125,-18.24545 -20.78063,-29.29625 -42.77438,-30.61608 -11.1705,-0.67031 -13.88287,-0.2203 -22.80462,3.78358 l -10.12625,4.54437 -9.30338,-4.55172 c -8.39337,-4.10645 -10.64775,-4.48118 -23.04537,-3.83045 -11.15888,0.58567 -15.462,1.64295 -22.892,5.62436 -10.881,5.83076 -18.8145,16.5747 -21.506,29.12469 -2.5845,12.05165 -2.39875,62.0235 0.2405,64.66272 1.43675,1.43674 7.5515,1.91094 20.41662,1.58334 L 669.16662,407.5 Z"
     id="path835" />
</svg>
