<?xml version="1.0" encoding="UTF-8" standalone="no"?>
<svg xmlns:rdf="http://www.w3.org/1999/02/22-rdf-syntax-ns#" xmlns="http://www.w3.org/2000/svg" height="1e3" width="1e3" version="1.1" xmlns:cc="http://creativecommons.org/ns#" xmlns:dc="http://purl.org/dc/elements/1.1/" viewBox="0 0 1000 1000">
 <metadata>
  <rdf:RDF>
   <cc:Work rdf:about="">
    <dc:format>image/svg+xml</dc:format>
    <dc:type rdf:resource="http://purl.org/dc/dcmitype/StillImage"/>
    <dc:title/>
   </cc:Work>
  </rdf:RDF>
 </metadata>
 <rect height="1.7e2" width="6.8e2" y="5.8e2" x="1.6e2" fill="#fff"/>
 <rect height="1.6e2" width="6.4e2" y="4.3e2" x="1.8e2" fill="#f79122"/>
 <rect height="1.8e2" width="6.4e2" y="2.5e2" x="1.8e2" fill="#e05030"/>
 <path d="m0 5e2v-5e2h1e3v1e3h-1e3zm2.7e2 2.1e2c13-6 19-17 17-33-1.8-12-11-20-32-27-18-6.4-26-12-26-19 0-9.6 13-16 25-13 7.4 2 11 5.6 14 13 1.9 5.4 2.1 5.4 11 4.9 8.5-0.53 9-0.32 10 4 1.2 3.3 2.7 4.6 5.7 4.6 8.4 0 9.4 3 9.4 30 0.005 22 0.41 26 3.3 31 3.8 6.2 7.7 7.6 19 6.8l8.2-0.52 0.51-7.1c0.28-3.9-0.093-7.2-0.83-7.2-0.74-0.076-3.2-0.33-5.3-0.57-7.2-0.78-8.5-4.9-8.5-27 0.013-11 0.67-21 1.4-22 0.78-1.2 4-2.8 7.1-3.4 5.2-1.1 5.7-1.7 6.1-8.2 0.5-6.8 0.35-7-4.5-7-7.1 0-10-3.9-10-13v-7.4h-17l-0.026 7.1c-0.034 9.3-1.7 12-9.4 13l-6.4 1-5-10c-4.2-8.5-6.3-11-14-15-18-9.5-46-4.6-55 9.4-2.5 4-3.4 8.3-3.4 16 0.018 18 7.1 25 33 33 8.6 2.9 18 6.9 20 9 5.9 5.1 5.8 13-0.15 19-3.9 3.9-5.8 4.5-15 4.4-13-0.052-18-3.3-22-13-2.6-6.5-2.7-6.6-12-6.6-8.4 0-9.2 0.31-9.1 3.8 0.055 5.6 5.8 17 11 22 7.5 6.6 17 9.5 33 9.6 10 0.039 16-0.79 21-3zm1.4e2 1.5c-1.3-21 0.95-45-3.6-65-1.8-7.8-5.3-10-13-14-18-9.5-48 1.6-48 18 1.5 9.6 16 4.2 20-0.21 13-14 31 5.5 23 9.2-1.4 0.56-5.8 1-9.7 1-12 0-23 4.4-29 11-9.5 13-5.4 32 5.8 39 11 4 34 5.1 56 1.5zm-33-38c17-1 19 25-0.039 25-19 0.074-17-24 0.039-25zm86 24c-4.4-1.3-9.9 0.41-13-3.2-2.5-4.9-7.7-36-0.44-49 2.2-4.2 11 0.078 13-2.8 0.52-4 2-8.8 0.062-13-2.8-2.4-9.7-0.41-13-2.6-4.1-6-1.6-11-1.6-18-5.8 0.34-10 0.14-16 0.48-0.5 5.1 1.1 13-1.8 17-2.9 4.3-8.9 0.5-12 3.3-0.75 3.6-1.6 10 1.3 13 3.1 2.5 8-1.2 11 1.6 2.3 18 0.59 34 1.9 52 0.84 17 20 16 31 15-0.28-3 2.3-12-0.3-14zm20-60h-17l0.19 83c6.1 1.1 10 1.3 16 0.14 1.4-27 0.61-56 0.41-83zm69 79c12-7 16-19 9.2-31-3.5-6.5-13-12-26-15-10-2.4-16-5.7-16-9.4 0-8.6 15-12 21-5.1 1.9 2.1 3.8 5.1 4.4 6.7 0.8 2.2 2.9 2.9 9.4 2.9h8.4v-5.6c0-12-13-23-30-24-7-0.58-10 0.12-18 3.6-11 5.2-15 11-15 22s5.5 17 22 22c17 5.3 19 6.2 21 10 2.6 5-4.4 12-12 12-6.2 0-14-4.9-15-10-0.87-2.7-2.6-3.3-10-3.3-8 0-9 0.4-9 3.4 0 5.1 4.1 14 8.2 17 6.3 5.6 12 7.2 26 7.4 11 0.12 14-0.48 20-4.1zm62-10c-3.5-1.6-9.7-0.82-13-3.7-5.3-6.5-3.7-47 0.27-50 4.8-3.6 9.4-0.34 11-2 1.9-2.9 3.2-10 0.18-12-3.9-1.8-11 0.99-14-2.2-1.9-5.4 0.49-12 0.49-18-4.9-0.01-11-2.1-15-0.83-1.5 7.5 2.2 14-0.85 19-3.7 2.9-10-0.49-14 2.9-1.3 3.1-2.2 11 0.85 13 3.2 1.1 9.7-0.69 12 2 0.92 1.1 0.13 16 0.43 31-0.22 15 0.08 23 5.3 32 3.2 4.2 15 3.6 25 3.1-0.55-3.7 2.3-10 0.22-13zm30-70h-17v84h17zm70 79c5.2-3.3 17-18 14-23-4.4-2.3-14-5.2-15-0.29-4 21-21 20-31 9.5-5.4-5.5-7.8-15-8.2-23-0.99-23 27-40 39-11 3.1 1.2 13 2 15-0.66-14-52-71-27-69 11 4.2 39 31 52 55 37zm88-19c0-14-7.8-21-35-28-8.8-2.2-12-6.9-8.2-12 14-12 23 0.26 25 8.2 5.8 1.3 10 0.38 17 0.004-0.57-12-6.3-21-15-25-21-6.7-47-0.52-48 21 0 13 9.2 21 29 25 18 3.8 22 17 6 19-15 0.94-17-5.7-21-11-3.7-1.1-13-3.4-15-0.18-3.1 9 6.9 20 13 24 10 4.9 29 5 39 0.19 6.8-3.5 12-9.9 12-21zm-3.3e2 -88c-12 0.67-12 19 0 18 12-0.67 12-19 0-18zm1.6e2 0.84c-13 0.3-12 18 0.33 18 12-0.22 12-18-0.33-18zm-2.4e2 -70c6.8-17 7.6-44 0-58-16-32-72-32-1e2 -31 0.56 38-0.1 78-0.028 1.2e2 37 0.79 84 7.5 1e2 -30zm-62-49c8.7 0 22 3.6 23 18-0.25 14-15 17-23 17-0.34-8.9-0.53-29-0.01-35zm1.8e2 50c0-28-0.34-32-3.5-38-19-48-95-29-96 20-0.018 21 9.6 36 28 45 20 7.4 52 5 72 3.9zm-48-28c13 0.1 14 20 0.73 20-13 0.077-14-20-0.73-20zm90 30c0.91-28 1.4-29 12-31 8.8-1.9 8.5-1.2 8-20l-0.47-18-12-0.49c-43-1.5-49 28-48 61-0.3 17 0.053 30-0.087 34 11 0.28 23 0.61 41 0.19zm1.2e2 27c-5.9-9.1-22-31-29-40 13-1.3 19-0.83 33-1.2 1-9.8 0.3-21-3-28-8.8-19-22-28-43-29-21-1.3-39 11-48 27-6.1 15-6.8 32 0 45 18 29 42 27 62 27 15 0.009 28-0.58 29-1.3zm-47-59c13 0.064 13 20-0.19 20-14-0.45-12-20 0.19-20zm-1.5e2 -90c12-5.6 19-14 25-26 3.4-7.8 3.8-12 4.6-50 0.76-35 0.52-42-1.6-44-3.2-3.2-36-3.6-39-0.49-1.1 1.1-2 5.4-2 9.7 0 9.7-2 12-12 12-20 0-39 14-46 33-7.4 20-2.1 44 12 57 18 16 38 18 59 8.4zm-23-32c-20-0.92-19-29 0.94-28 20 0.83 19 29-0.94 28zm-90 30c40-17 32-67 32-96h-42c-0.93 12 0.98 57-9.1 58-13-8-8.9-38-9.2-58h-42c2.3 35-8.8 80 30 96 11 4.2 29 4.5 40 0.7zm2.4e2 -15c15-30 10-47 9.7-81h-40c-1.6 17 0.81 56-11 58-10-0.65-8.5-37-9.1-58l-19-0.47c-12-0.31-20 0.18-21 1.4-6.5 18-1.4 69 12 83 23 20 59 22 79-2.9zm-3.2e2 10c2.4-16 1.6-26 2.4-44-9.7-0.7-36 2.1-42-3.8-6-27-3.8-40-4.6-74h-42c-2.1 29-2.4 69 9.6 96s37 28 56 28c8.8-0.034 11-0.31 21-2.5zm3.9e2 -57c12 1.9 9.4 56 9.5 60h38c0.061-13-3.2-58 9.2-59 9.7 2 10 49 11 58 15 0.56 23 1.4 38 0.98-1.3-21 3.9-50-1.6-70-5.3-18-21-29-43-31-15-0.75-20 2.7-33 8.3-13-7.1-22-8.9-32-8.4-22 0.92-40 15-44 35-2.6 12-2.4 62 0.24 65 14 1.1 24 1.4 39 0.58 0.23-13-4.3-58 8.1-59z" stroke-width="1.7" fill="#1f2429"/>
</svg>
