<?xml version="1.0" encoding="UTF-8" standalone="no"?>
<svg
   xmlns:dc="http://purl.org/dc/elements/1.1/"
   xmlns:cc="http://creativecommons.org/ns#"
   xmlns:rdf="http://www.w3.org/1999/02/22-rdf-syntax-ns#"
   xmlns:svg="http://www.w3.org/2000/svg"
   xmlns="http://www.w3.org/2000/svg"
   viewBox="0 0 885.8268 885.8268"
   height="250mm"
   width="250mm"
   version="1.1"
   id="svg5291">
  <metadata
     id="metadata5297">
    <rdf:RDF>
      <cc:Work
         rdf:about="">
        <dc:format>image/svg+xml</dc:format>
        <dc:type
           rdf:resource="http://purl.org/dc/dcmitype/StillImage" />
        <dc:title></dc:title>
      </cc:Work>
    </rdf:RDF>
  </metadata>
  <defs
     id="defs5295" />
  <rect
     y="0.00080042559"
     x="0"
     height="885.82678"
     width="885.82678"
     id="rect5301"
     style="fill:#0077b5;fill-opacity:1;stroke:none;stroke-opacity:1" />
  <ellipse
     ry="56.900578"
     rx="56.952484"
     cy="268.96976"
     cx="260.00076"
     id="path5843"
     style="fill:#ffffff;fill-opacity:1;stroke:none;stroke-opacity:1" />
  <rect
     y="368.43039"
     x="210.70612"
     height="314.36765"
     width="97.861275"
     id="rect5845"
     style="fill:#ffffff;fill-opacity:1;stroke:none;stroke-opacity:1" />
  <path
     id="path5879"
     d="m 463.6019,412.7186 c 0.28487,11.90838 10.06431,-52.40622 101.9044,-52.35283 91.84008,0.0533 109.12146,76.23801 109.42614,135.95506 0.30469,59.71699 0.16556,186.40069 0.16556,186.40069 l -97.67236,0 c 0,0 -0.23426,-84.259 0,-172.11506 0.23426,-87.85602 -107.52927,-81.64913 -108.26731,-1.55018 -0.73804,80.09894 -1.63029,173.44484 -1.63029,173.44484 l -97.13994,0.078 0.0169,-313.683 93.28137,-0.17095 z"
     style="fill:#ffffff;fill-opacity:1;fill-rule:evenodd;stroke:none;stroke-width:1px;stroke-linecap:butt;stroke-linejoin:miter;stroke-opacity:1" />
</svg>
