<?xml version="1.0" encoding="UTF-8" standalone="no"?>
<svg
   xmlns:dc="http://purl.org/dc/elements/1.1/"
   xmlns:cc="http://creativecommons.org/ns#"
   xmlns:rdf="http://www.w3.org/1999/02/22-rdf-syntax-ns#"
   xmlns:svg="http://www.w3.org/2000/svg"
   xmlns="http://www.w3.org/2000/svg"
   id="svg16"
   viewBox="0 0 1000 1000"
   version="1.1"
   width="1e3"
   height="1e3">
  <metadata
     id="metadata22">
    <rdf:RDF>
      <cc:Work
         rdf:about="">
        <dc:format>image/svg+xml</dc:format>
        <dc:type
           rdf:resource="http://purl.org/dc/dcmitype/StillImage" />
        <dc:title>ludumdare</dc:title>
      </cc:Work>
    </rdf:RDF>
  </metadata>
  <defs
     id="defs20" />
  <title
     id="title2">ludumdare</title>
  <g
     id="g14"
     transform="scale(.8)">
    <rect
       style="fill:#1f2429;fill-opacity:1"
       id="rect4"
       height="1.25e3"
       x="0"
       width="1.25e3"
       y="0" />
    <g
       fill-rule="evenodd"
       id="g12">
      <path
         fill="#e05030"
         id="path6"
         d="m321 528c-4.94 0-9.88-3.98-9.88-11.9v-85.8l-59.3 0.268v93c0 44 33.1 66 66.2 66h51v-61.6zm131-2.93c0 15.9-19.8 15.9-19.8 0v-62.9h-56.3v65.2c0 87.9 132 87.9 132 0v-65.2h-56.3v62.9zm141-94.5v27.6l-12.2 0.386c-37 0.331-66.6 30.4-66.6 67.4 0 37.3 30 67.5 67.2 67.5 37.3 0 67.5-30.2 67.5-67.5v-95.4h-55.9zm-12.2 83.9h12.2v11.5c0 6.36-5 11.6-11.6 11.6-6.36 0-11.4-5.23-11.4-11.6 0-6.15 4.68-11.2 10.7-11.5zm151 10.6c0 15.9-19.8 15.9-19.8 0v-62.9h-56.3v65.2c0 87.9 132 87.9 132 0v-65.2h-56.3v62.9zm190 0c0-14.1 17.7-13.9 17.7-0.228v64.7h55.9v-67c0-46.6-33.6-64.5-65.4-64.3-12.5 0.23-26.3 4.77-35.2 14.3-10.2-10.2-23.2-14.3-35.9-14.3-31.6 0-64.7 16.6-64.7 64.3v67h55.9v-64.7c0-13.6 17.5-13.9 17.5 0.228v64.5h54.3v-64.5z" />
      <path
         fill="#e08020"
         id="path8"
         d="m374 768h67.3c103 0 103-159 0-159h-67.3zm58.8-61.6v-36.6h9.58c20.2 0 20.4 36.6 0 36.6z" />
      <path
         fill="#e08020"
         id="path10"
         d="m587 637c-25.5-0.362-50.2 15.8-60.2 39.3-10.4 23.2-5.63 52.1 11.8 70.6 13 14.5 32.8 22.3 52.2 21.3h7.37v0.0203h54.5c-0.0813-23.3 0.169-46.6-0.134-69.9-1.31-26-19.8-49.9-44.5-58a65.5 65.5 0 0 0 -21 -3.44zm-0.264 54.3c4.79 0.0325 9.64 3.01 10.9 7.99 0.732 4.82 0.551 9.74 0.478 14.6-4.42 0.0285-8.85 0.0325-13.3-0.167-8.62-1.25-12.4-13.2-5.92-19.1 2.06-2.31 4.92-3.35 7.8-3.33zm133-50.5c-35.7 0-60.6 23.4-60.6 59.1v68.4h55.9v-62.5c0-6.99 4.4-11.5 11.5-11.5h13.4v-53.4zm91.1-3.86c-25.5-0.362-50.2 15.8-60.2 39.3-10.5 23.3-5.56 52.5 12.1 71 13.1 14.4 32.8 22 52.2 21h61.6l-48.6-54.3h48.7v-11.3c0-22.2-11.8-44.2-30.9-55.8-10.4-6.49-22.5-9.93-34.8-9.91zm0 54.3c8.32-0.34 14.4 9.89 9.85 17-3.95 7.9-16.5 7.02-20-0.734-3.42-6.99 2.13-16.5 10.2-16.2z" />
    </g>
  </g>
</svg>
