<?xml version="1.0" encoding="UTF-8" standalone="no"?>
<svg
   xmlns:dc="http://purl.org/dc/elements/1.1/"
   xmlns:cc="http://creativecommons.org/ns#"
   xmlns:rdf="http://www.w3.org/1999/02/22-rdf-syntax-ns#"
   xmlns:svg="http://www.w3.org/2000/svg"
   xmlns="http://www.w3.org/2000/svg"
   viewBox="0 0 1000 1000"
   height="1000"
   width="1000"
   id="svg2"
   version="1.1">
  <metadata
     id="metadata8">
    <rdf:RDF>
      <cc:Work
         rdf:about="">
        <dc:format>image/svg+xml</dc:format>
        <dc:type
           rdf:resource="http://purl.org/dc/dcmitype/StillImage" />
        <dc:title></dc:title>
      </cc:Work>
    </rdf:RDF>
  </metadata>
  <defs
     id="defs6" />
  <rect
     y="1.3065796"
     x="1.3066167"
     height="997.38678"
     width="997.38678"
     id="rect841"
     style="fill:#00e4aa;fill-opacity:1;fill-rule:nonzero;stroke:#fffffc;stroke-width:2.61323333;stroke-miterlimit:4;stroke-dasharray:none;stroke-opacity:1" />
  <g
     style="fill:#000000;fill-opacity:1;stroke:#fffffc;stroke-width:0.2;stroke-miterlimit:4;stroke-dasharray:none;stroke-opacity:1"
     transform="matrix(4.4806602,0,0,4.4806604,292.10493,118.38446)"
     id="g817">
    <path
       id="path819"
       d="M -65.192388,-26.421207 H 157.98901 V 196.76018 H -65.192388 Z M 28.121319,120.18208 c -0.134905,-0.54677 -0.805618,-0.79073 -1.368549,-0.569 -1.679595,2.74922 -8.346147,13.87568 -10.531448,17.46217 0,0.36857 0.587645,0.68119 1.00408,0.51429 3.301431,-4.52874 8.649515,-13.58274 10.895917,-17.40746 z m -0.518795,17.56228 c 4.403358,-0.0932 3.983629,-9.96331 -0.266382,-9.90528 -4.435391,0.0978 -3.938352,9.98514 0.266382,9.90528 z m -0.249886,-8.85157 c 2.960697,-8.8e-4 3.388888,7.76901 0.300721,7.75029 -3.088167,-0.0187 -3.261418,-7.74941 -0.300721,-7.75029 z m 16.721393,-7.84025 c -10.586381,-0.0922 -9.817258,14.95164 0.164101,14.9302 9.98136,-0.0214 10.42228,-14.83798 -0.164101,-14.9302 z m 0.111592,1.26735 c 7.850217,-0.14333 8.744155,11.99256 0.06518,12.00955 -8.678971,0.017 -7.915401,-11.86622 -0.06518,-12.00955 z m 30.322851,-2.69277 H 57.279661 c 0,6.0452 -0.03396,11.71681 -0.03396,17.76202 5.742938,0 11.519838,-0.10189 17.262775,-0.10189 v -17.66013 z m -57.384406,-0.0416 c -3.628105,0.0429 -3.512634,9.47597 0.05298,9.51193 3.837144,-0.001 3.575126,-9.55485 -0.05298,-9.51193 z m 0.105239,8.82856 c -2.496873,0.0237 -2.981697,-7.80561 -0.08591,-7.85771 2.895787,-0.0521 2.582782,7.83402 0.08591,7.85771 z M 6.6897126,107.24439 c 0.5695117,-0.38955 4.2898134,-0.23377 4.6969784,0.15815 0.02294,0.81217 -0.02553,6.18659 0.014,10.2536 0.373647,0.22655 1.837953,0.17729 2.132197,-0.13641 -0.02491,-0.86746 0.221347,-2.51883 0.221347,-6.05363 v -6.34746 c -2.247897,-0.0758 -5.5605824,-0.0307 -7.1091081,-0.0824 -0.064552,-0.63362 -0.011922,-1.70419 0.013345,-2.64429 0.2828351,-0.1306 1.0325691,-0.29365 2.5902022,-0.26482 l 0.083089,-1.62732 c -1.2032166,0.0318 -2.9743728,-0.29659 -4.0037188,0.7834 -1.0293462,1.08 -0.393732,2.86123 -0.6073373,3.98032 -0.4791079,0.0176 -2.2848583,-0.01 -3.1460849,0.007 -0.1047764,0.23302 -0.1517423,0.84449 -0.1051381,1.39849 0.6887271,0.0158 2.7213743,-0.0326 3.2180946,0.24171 0.1635502,0.60418 -0.00114,2.51257 -0.00114,5.52526 0,2.28357 -0.1469679,4.23664 0.1900234,5.01958 0.6070464,0.56719 1.0961049,0.21388 1.5236323,0.0165 0.148248,-3.34208 0.265084,-7.96299 0.2896165,-10.22762 z m 72.8060504,-6.65965 c -11.738357,-0.0422 -11.882469,17.08666 0,17.22882 11.882468,0.14215 11.738356,-17.18655 0,-17.22882 z m -65.741526,0.90678 c 0,-0.49872 -0.612076,-0.90678 -1.36017,-0.90678 -0.748093,0 -1.360169,0.40806 -1.360169,0.90678 0,0.49873 0.612076,0.90678 1.360169,0.90678 0.748094,0 1.36017,-0.40805 1.36017,-0.90678 z m 74.355932,-4.860745 c 0,-2.345358 -3.518132,-8.02228 -6.636031,-10.708007 C 75.358163,80.654514 68.18161,78.509808 45.658553,75.219313 38.629941,74.192476 31.047531,72.567164 28.808753,71.60751 19.312647,67.537004 19.9013,56.732325 29.859153,52.327488 c 8.349481,-3.693368 23.852149,-2.932824 30.418603,1.492306 3.828115,2.57977 6.602416,6.8837 7.31675,11.350886 l 0.587947,3.676774 h 9.181226 9.181226 L 86.080062,63.05646 C 85.027137,49.939258 75.142132,39.31053 60.111389,35.133967 36.071905,28.454168 11.000942,36.867176 4.8053164,53.692917 1.065282,63.849892 3.0288299,72.981064 10.524907,80.290996 c 6.31867,6.161758 12.995775,8.64493 30.930247,11.274473 18.093444,1.584226 22.359834,1.850134 25.17943,5.13059 1.73527,2.0189 3.571118,1.427476 11.690251,1.432454 9.641235,0.0063 9.785334,0.619286 9.785334,-1.497738 z"
       style="fill:#232221;fill-opacity:1;stroke:none;stroke-width:0.18135594;stroke-miterlimit:4;stroke-dasharray:none;stroke-opacity:1" />
  </g>
</svg>
