<svg xmlns:rdf="http://www.w3.org/1999/02/22-rdf-syntax-ns#" xmlns="http://www.w3.org/2000/svg" height="500" width="500" version="1.1" xmlns:cc="http://creativecommons.org/ns#" xmlns:dc="http://purl.org/dc/elements/1.1/" viewBox="0 0 500 500.00001">
<rect height="535" width="535" y="-12.8" x="-10.3" fill="#00aced"/>
<path d="m185 374c-26.2-1.54-58.4-11.5-80.4-24.9-3.15-1.92-3.05-1.94 10.2-2.02 27-0.154 49.3-6.76 71.2-21.1l9.55-6.26-9.93-1.98c-20.5-4.08-37.6-16.6-46.3-33.8-2.21-4.39-4.02-8.12-4.02-8.29 0.00048-0.167 5.35-0.361 11.9-0.43 6.53-0.0697 13.1-0.605 14.5-1.19 2.39-0.961 1.9-1.31-5.14-3.57-20.8-6.68-38.4-26.1-42.9-47.4-0.865-4.08-1.58-8.84-1.59-10.6-0.0158-2.6 0.324-3.01 1.91-2.3 9.63 4.24 26.8 8.33 26.8 6.36-0.0188-0.493-2.22-2.54-4.89-4.55-9.07-6.83-17.7-20.4-21.1-33.1-3.44-13-1.67-32.4 3.95-43.5l2.25-4.42 8.81 9.3c31.7 33.4 71.4 52.5 120 57.4l4.49 0.458-0.0719-13.4c-0.0605-11.3 0.346-14.7 2.58-21.5 6.8-20.8 24.2-37.3 45-42.6 8.64-2.23 24.5-2.25 33-0.0396 8.07 2.1 19.2 8.08 25.7 13.9 2.7 2.38 5.28 4.32 5.73 4.32 2.97 0 21.9-6.39 29.5-9.95 5.02-2.35 9.12-3.75 9.12-3.12 0 0.635-1.61 4.17-3.57 7.85-4.09 7.68-11.9 16.6-18.5 21.2-2.48 1.72-4.28 3.36-4 3.64 1.34 1.34 23.5-4.06 33.2-8.08 1.66-0.69 1.28 0.309-1.66 4.41-4.16 5.79-24.7 26-26.5 26-0.62 0-1.09 4.34-1.1 10.2-0.144 68-40.6 134-100 164-28.8 14.5-61.4 20.7-97.5 18.6z" fill="#fff"/>
</svg>
